<?xml version="1.0" encoding="UTF-8" standalone="no"?>
<!-- Created with Inkscape (http://www.inkscape.org/) -->

<svg
   width="87.786926mm"
   height="87.771996mm"
   version="1.1"
   viewBox="0 0 87.786929 87.771996"
   xml:space="preserve"
   id="svg16"
   sodipodi:docname="handicapIcon.svg"
   inkscape:version="1.3-beta (cedbd6c6ff, 2023-05-28)"
   xmlns:inkscape="http://www.inkscape.org/namespaces/inkscape"
   xmlns:sodipodi="http://sodipodi.sourceforge.net/DTD/sodipodi-0.dtd"
   xmlns="http://www.w3.org/2000/svg"
   xmlns:svg="http://www.w3.org/2000/svg"><defs
     id="defs16" /><sodipodi:namedview
     id="namedview16"
     pagecolor="#ffffff"
     bordercolor="#666666"
     borderopacity="1.0"
     inkscape:showpageshadow="2"
     inkscape:pageopacity="0.0"
     inkscape:pagecheckerboard="0"
     inkscape:deskcolor="#d1d1d1"
     inkscape:document-units="mm"
     inkscape:zoom="0.4012831"
     inkscape:cx="497.15525"
     inkscape:cy="532.04334"
     inkscape:window-width="1366"
     inkscape:window-height="705"
     inkscape:window-x="1432"
     inkscape:window-y="-8"
     inkscape:window-maximized="1"
     inkscape:current-layer="svg16" /><path
     d="m 44.209179,10.75873 c -0.3777,-0.0177 -0.74677,-0.0104 -1.10579,0.0215 -0.35902,0.0319 -0.70819,0.0883 -1.04643,0.1687 -0.33823,0.0804 -0.66535,0.18474 -0.98069,0.31225 -0.31533,0.12752 -0.6189,0.27836 -0.90924,0.45177 -0.29035,0.17342 -0.56753,0.36922 -0.83078,0.58728 -0.26324,0.21806 -0.51254,0.4583 -0.74658,0.71975 -0.23405,0.26145 -0.45295,0.54429 -0.65569,0.84788 -0.20275,0.30358 -0.38944,0.62783 -0.55877,0.9723 -0.10663,0.21692 -0.18907,0.39567 -0.25289,0.56983 -0.0638,0.17417 -0.10875,0.34382 -0.14052,0.54267 -0.0635,0.3977 -0.0738,0.91212 -0.0738,1.81314 0,0.89297 0.011,1.4104 0.0745,1.81615 0.0317,0.20287 0.0765,0.378 0.13952,0.55809 0.063,0.1801 0.14419,0.36527 0.24886,0.58862 0.11995,0.25596 0.25982,0.50653 0.41689,0.74994 0.15708,0.2434 0.3314,0.47962 0.5202,0.70633 0.1888,0.22672 0.39194,0.44378 0.60706,0.64966 0.21512,0.20588 0.44211,0.400332 0.67816,0.581242 0.23606,0.18091 0.48126,0.3486 0.73284,0.50041 0.25157,0.1518 0.5097,0.28794 0.7714,0.40649 0.26171,0.11856 0.52711,0.21934 0.79354,0.30051 0.26644,0.0812 0.53382,0.1428 0.79958,0.18246 0.40025,0.0597 0.79892,0.0861 1.19299,0.0808 0.39408,-0.005 0.78341,-0.0422 1.16482,-0.10901 0.38142,-0.0667 0.75494,-0.16334 1.1172,-0.2881 0.36226,-0.12475 0.7135,-0.27747 1.05012,-0.4568 0.33662,-0.17933 0.65876,-0.38533 0.96324,-0.61578 0.30449,-0.230452 0.59107,-0.485592 0.85693,-0.763702 0.26587,-0.27811 0.51109,-0.57888 0.73183,-0.9012 0.22075,-0.32231 0.41713,-0.66593 0.58627,-1.02898 0.10198,-0.21891 0.18174,-0.40271 0.24383,-0.58157 0.0621,-0.17887 0.10661,-0.35287 0.13852,-0.5524 0.0638,-0.39906 0.0768,-0.90008 0.0781,-1.74606 6.5e-4,-0.46204 1.9e-4,-0.81394 -0.0107,-1.10142 -0.0109,-0.28749 -0.0322,-0.51079 -0.0731,-0.71574 -0.041,-0.20494 -0.1015,-0.39163 -0.19084,-0.60605 -0.0893,-0.21442 -0.20743,-0.45649 -0.36357,-0.77241 -0.14849,-0.30045 -0.31104,-0.58447 -0.48699,-0.8519 -0.17596,-0.26743 -0.36553,-0.51827 -0.56782,-0.75195 -0.2023,-0.23368 -0.41745,-0.45013 -0.64497,-0.64932 -0.22751,-0.1992 -0.46746,-0.38104 -0.71908,-0.54501 -0.25161,-0.16399 -0.51492,-0.31033 -0.78951,-0.43837 -0.2746,-0.12803 -0.56049,-0.23766 -0.85693,-0.32901 -0.29645,-0.0914 -0.60348,-0.1644 -0.92065,-0.21834 -0.31718,-0.0539 -0.64425,-0.0888 -0.98103,-0.10465 z"
     style="fill:#ffffff;fill-opacity:1;stroke-width:0.649025"
     id="path82" /><path
     d="m 18.129009,23.605302 c -0.30302,6.4e-4 -0.59807,0.0428 -0.88041,0.11974 -0.28234,0.077 -0.55195,0.18886 -0.80461,0.32969 -0.25266,0.14083 -0.48833,0.31058 -0.70231,0.50275 -0.21397,0.19218 -0.40622,0.4069 -0.57252,0.63792 -0.1663,0.23102 -0.3066,0.47815 -0.41622,0.73552 -0.10962,0.25737 -0.18881,0.52501 -0.23276,0.79622 -0.0439,0.27122 -0.0528,0.54613 -0.0221,0.81869 0.0307,0.27257 0.10126,0.54287 0.21565,0.80428 0.0941,0.21509 0.18629,0.40849 0.28441,0.58426 0.0981,0.17577 0.20203,0.33387 0.3193,0.47826 0.11727,0.1444 0.24787,0.27512 0.39945,0.3961 0.15158,0.12098 0.32419,0.23223 0.52523,0.33774 0.20104,0.10552 0.43061,0.20519 0.69627,0.3032 0.26567,0.098 0.56751,0.19435 0.91295,0.2928 0.69087,0.1969 1.55643,0.40258 2.65731,0.64898 7.45154,1.66783 11.01014,2.46025 12.76641,2.89612 0.87813,0.21794 1.30567,0.34663 1.54381,0.45111 0.11908,0.0522 0.1908,0.0984 0.24786,0.14657 0.0571,0.0482 0.0996,0.0986 0.15998,0.15897 0.0923,0.0923 0.16281,0.17141 0.217,0.27066 0.0542,0.0993 0.092,0.21863 0.11806,0.39107 0.0522,0.34488 0.0583,0.90243 0.0583,1.93757 0,1.06599 -0.0335,2.18496 -0.0983,3.33817 -0.0647,1.1532 -0.16059,2.34043 -0.28609,3.54275 -0.12549,1.20234 -0.28057,2.41995 -0.46284,3.63332 -0.18228,1.21337 -0.39176,2.42251 -0.62685,3.60883 -0.24966,1.25983 -0.51137,2.46459 -0.80159,3.67155 -0.29022,1.20696 -0.609,2.41624 -0.97264,3.68496 -0.36365,1.26872 -0.77237,2.59704 -1.2423,4.04216 -0.46993,1.44513 -1.00115,3.00696 -1.61022,4.74313 -0.69699,1.98679 -1.06537,3.05546 -1.2527,3.76915 -0.0937,0.35684 -0.14196,0.62481 -0.16367,0.87471 -0.0217,0.24989 -0.0166,0.48154 -0.003,0.76536 0.0182,0.38992 0.0723,0.74624 0.164,1.07159 0.0917,0.32533 0.22089,0.61986 0.38973,0.88644 0.0844,0.13329 0.17867,0.25963 0.28307,0.37933 0.1044,0.11969 0.21893,0.23259 0.34378,0.33942 0.24968,0.21365 0.54082,0.40227 0.87504,0.56882 0.21178,0.10554 0.43155,0.19128 0.65636,0.25759 0.22483,0.0663 0.45455,0.11324 0.68622,0.14153 0.23167,0.0283 0.46528,0.038 0.69762,0.0295 0.23233,-0.008 0.46342,-0.0354 0.69023,-0.0795 0.22683,-0.0441 0.4493,-0.10558 0.66442,-0.18413 0.21511,-0.0786 0.42292,-0.17433 0.62014,-0.28609 0.19722,-0.11176 0.38395,-0.2396 0.55709,-0.38335 0.17315,-0.14377 0.3327,-0.30338 0.47559,-0.47794 0.0894,-0.1092 0.23833,-0.3962 0.45646,-0.88477 0.21814,-0.48857 0.50534,-1.17857 0.87102,-2.09352 0.73136,-1.82992 1.77681,-4.55961 3.21106,-8.37712 2.21949,-5.90759 4.07406,-10.74061 4.12131,-10.73996 0.0473,6.5e-4 0.52349,1.17926 1.0585,2.61875 2.25349,6.06317 4.0316,10.77304 5.2962,14.03218 0.63229,1.62957 1.13602,2.89623 1.50692,3.78827 0.37089,0.89204 0.60896,1.40929 0.70902,1.53946 0.12705,0.16528 0.34617,0.36893 0.59733,0.56345 0.25116,0.19453 0.53415,0.37994 0.78817,0.5098 0.30292,0.15486 0.61306,0.26983 0.92468,0.34713 0.31163,0.0773 0.62465,0.11699 0.93407,0.12175 0.30943,0.005 0.61529,-0.0254 0.9116,-0.0882 0.29632,-0.0628 0.58328,-0.15815 0.85559,-0.28341 0.27231,-0.12526 0.53,-0.28043 0.76738,-0.46317 0.23738,-0.18275 0.45442,-0.39298 0.64596,-0.6282 0.19155,-0.23521 0.35756,-0.49545 0.49236,-0.77811 0.13481,-0.28266 0.23839,-0.58784 0.30555,-0.91293 0.0557,-0.26974 0.10055,-0.46094 0.0976,-0.71003 -0.003,-0.2491 -0.0536,-0.55596 -0.1885,-1.05616 -0.1349,-0.50019 -0.35412,-1.19392 -0.69426,-2.21695 -0.34014,-1.02303 -0.80138,-2.37547 -1.42005,-4.19308 -0.65307,-1.91869 -1.22952,-3.70574 -1.73835,-5.39681 -0.50883,-1.69108 -0.94998,-3.28613 -1.33218,-4.82028 -0.3822,-1.53414 -0.7055,-3.00746 -0.97867,-4.45535 -0.27318,-1.4479 -0.49607,-2.87044 -0.67783,-4.30276 -0.16122,-1.27041 -0.29365,-2.58477 -0.39443,-3.85233 -0.10077,-1.26757 -0.17007,-2.48824 -0.20459,-3.5706 -0.0345,-1.08236 -0.0345,-2.02639 0.003,-2.74117 0.0188,-0.35738 0.047,-0.65749 0.0849,-0.88879 0.0379,-0.2313 0.0855,-0.39384 0.14321,-0.47626 0.0876,-0.12506 0.17802,-0.22699 0.32667,-0.32298 0.14865,-0.096 0.35582,-0.18621 0.67616,-0.28844 0.32034,-0.10223 0.75399,-0.21644 1.35666,-0.36021 0.60267,-0.14378 1.37426,-0.31701 2.36989,-0.53764 3.44786,-0.76403 10.71009,-2.4017 12.83583,-2.89444 0.29504,-0.0684 0.63799,-0.17989 0.95319,-0.30487 0.3152,-0.12498 0.60262,-0.26313 0.78583,-0.38436 0.20507,-0.13571 0.40527,-0.32554 0.59062,-0.54937 0.18536,-0.22384 0.3558,-0.48196 0.50041,-0.75431 0.14461,-0.27233 0.26364,-0.55892 0.34646,-0.84015 0.0828,-0.28124 0.12946,-0.55711 0.12946,-0.80763 0,-0.19462 -0.0227,-0.39086 -0.0654,-0.5856 -0.0427,-0.19474 -0.10529,-0.38795 -0.18547,-0.57687 -0.0802,-0.18893 -0.17797,-0.37354 -0.29046,-0.55072 -0.11247,-0.17718 -0.23974,-0.34695 -0.37933,-0.50645 -0.13958,-0.15949 -0.29162,-0.30852 -0.45311,-0.44439 -0.16149,-0.13587 -0.33259,-0.25859 -0.5108,-0.36491 -0.17821,-0.10632 -0.36334,-0.19614 -0.55307,-0.26697 -0.18973,-0.0708 -0.38383,-0.12253 -0.57989,-0.15194 -0.21625,-0.0325 -0.55149,-0.0403 -0.9173,-0.0268 -0.36581,0.0134 -0.76232,0.0481 -1.10109,0.10096 -4.67215,0.72871 -8.12896,1.26996 -10.78592,1.67159 -2.65696,0.40165 -4.51431,0.66363 -5.98743,0.8348 -0.73657,0.0856 -1.37697,0.14845 -1.97346,0.19453 -0.59649,0.0461 -1.14883,0.0756 -1.70916,0.0942 -1.12066,0.0373 -2.27291,0.0315 -3.87245,0.0315 -1.4823,0 -2.62771,-0.003 -3.68463,-0.0352 -1.05692,-0.0319 -2.0254,-0.0922 -3.1537,-0.20627 -1.1283,-0.11402 -2.41648,-0.28158 -4.11293,-0.52791 -1.69644,-0.24633 -3.80128,-0.57163 -6.56263,-1.00048 -4.27143,-0.66336 -7.97024,-1.20559 -8.21982,-1.20506 z"
     style="fill:#ffffff;fill-opacity:1;stroke-width:0.649025"
     id="path83" /><path
     d="M 43.847629,-4.9316398e-8 C 42.721919,-3.1004932e-4 41.597339,0.02479995 40.577879,0.07549995 c -1.01946,0.0507 -1.93379,0.12701 -2.63954,0.22873 -1.17119,0.16888 -2.32436,0.38046 -3.4626,0.63625 C 33.337489,1.19626 32.214059,1.49622 31.102019,1.84101 c -1.11205,0.34478 -2.21269,0.73431 -3.3053,1.17019 -1.09261,0.43588 -2.17709,0.91815 -3.257,1.44722 -0.54762,0.26828 -1.0886,0.54717 -1.6223,0.83647 -0.5337,0.2893 -1.06005,0.58867 -1.57937,0.89852 -0.51932,0.30984 -1.03162,0.62995 -1.5361,0.95989 -0.50448,0.32994 -1.0013,0.66969 -1.49048,1.01926 -0.48919,0.34957 -0.97045,0.70888 -1.44387,1.07762 -0.47343,0.36873 -0.93904,0.7472 -1.39624,1.13463 -0.45721,0.38744 -0.90609,0.78396 -1.34661,1.18965 -0.44052,0.40568 -0.87259,0.82049 -1.29596,1.24396 -0.42338,0.42348 -0.8382,0.85551 -1.24397,1.2963 -0.40577,0.44079 -0.80261,0.89029 -1.19031,1.34794 -0.38771,0.45766 -0.7661297,0.92353 -1.1353097,1.39759 -0.36917,0.47406 -0.7291,0.95622 -1.07929,1.44622 -0.35019,0.48999 -0.69087,0.98803 -1.02161,1.4935 -0.33074,0.50547 -0.65141,1.01829 -0.96224,1.53879 -0.31083,0.52049 -0.61175,1.04867 -0.90221,1.58372 -0.29046,0.535052 -0.57053,1.077182 -0.84016,1.626332 -0.3951,0.80468 -0.73965,1.53842 -1.0471,2.23774 -0.30745,0.69931 -0.57794,1.36426 -0.82473,2.03114 -0.2468,0.66688 -0.46974,1.33583 -0.68286,2.04321 -0.21313,0.70739 -0.41637,1.45314 -0.62283,2.27397 -0.25088,0.99748 -0.45691002,1.89615 -0.62450002,2.75223 -0.16758,0.85609 -0.29658,1.66954 -0.39408,2.49634 -0.0975,0.8268 -0.16328,1.66687 -0.20392,2.57649 -0.0406,0.90961 -0.0563,1.88884 -0.0533000019,2.99338 0.003000002,1.08277 0.0212000019,2.03233 0.0617000019,2.90786 0.0404,0.87553 0.10305,1.67703 0.19486,2.4638 0.0918,0.78677 0.21294,1.55875 0.36994,2.37525 0.157,0.8165 0.34992,1.67752 0.58593002,2.64223 0.19787,0.80883 0.40203,1.56724 0.62115,2.29979 0.21912,0.73255 0.45319,1.43926 0.71137,2.14417 0.25818,0.7049 0.54053,1.40821 0.85558,2.1341 0.31506,0.72591 0.66273,1.47442 1.05247,2.26994 0.32269,0.65868 0.66103,1.30737 1.01456,1.94596 0.35355,0.63858 0.7224,1.26694 1.10579,1.88457 0.3834,0.61763 0.7814,1.22471 1.19367,1.82052 0.41227,0.59581 0.8387,1.1803 1.27885,1.75343 0.44015,0.57313 0.89398,1.13476 1.3610297,1.68434 0.46704,0.54959 0.94756,1.08707 1.44051,1.61224 0.49295,0.52517 0.99846,1.03822 1.51632,1.53811 0.51786,0.4999 1.04797,0.98689 1.58976,1.46064 0.54179,0.47376 1.09513,0.93406 1.65986,1.38082 0.56473,0.44675 1.14093,0.87976 1.72761,1.29864 0.58668,0.41888 1.18403,0.82364 1.79167,1.21379 0.60764,0.39015 1.22544,0.7657 1.85305,1.12624 0.62761,0.36056 1.26515,0.70629 1.91174,1.03637 0.6466,0.33009 1.30216,0.6447 1.96675,0.94346 0.66458,0.29876 1.33814,0.58164 2.01973,0.84821 0.6816,0.26657 1.37143,0.51677 2.06904,0.75027 0.92873,0.31087 1.79018,0.57786 2.63116,0.81065 0.84098,0.23279 1.66156,0.43119 2.50807,0.60505 0.84651,0.17386 1.71906,0.32306 2.66437,0.45714 0.9453,0.13409 1.96333,0.25312 3.1007,0.36659 0.35417,0.0353 0.9862,0.0482 1.76216,0.0436 0.77597,-0.005 1.69592,-0.0267 2.62579,-0.0614 0.92987,-0.0346 1.86961,-0.0818 2.6855,-0.13651 0.81589,-0.0546 1.5079,-0.11707 1.94192,-0.18177 v 3.3e-4 c 1.00739,-0.15019 2.00101,-0.33036 2.98098,-0.53999 0.97997,-0.20961 1.94629,-0.44886 2.89847,-0.71773 0.95218,-0.26888 1.89027,-0.56719 2.81428,-0.89517 0.92401,-0.32797 1.83396,-0.68567 2.72943,-1.07259 0.89547,-0.38691 1.77634,-0.80298 2.6429,-1.24866 0.86656,-0.4457 1.71876,-0.92079 2.55603,-1.42509 0.83727,-0.5043 1.65988,-1.03808 2.46748,-1.60083 0.80761,-0.56275 1.60004,-1.15453 2.37761,-1.77557 0.42655,-0.34069 0.86239,-0.7096 1.30334,-1.10177 0.44094,-0.39217 0.88723,-0.80743 1.33419,-1.24162 0.44696,-0.4342 0.89462,-0.88723 1.33923,-1.35399 0.4446,-0.46676 0.8859,-0.94728 1.31977,-1.43715 0.86774,-0.97977 1.70564,-1.99634 2.48023,-3.01184 0.38729,-0.50775 0.75904,-1.01548 1.11049,-1.51799 0.35144,-0.5025 0.68286,-0.99999 0.99008,-1.4878 0.29401,-0.46683 0.63523,-1.06328 0.99309,-1.72694 0.35788,-0.66366 0.73223,-1.39456 1.09238,-2.12942 0.36016,-0.73485 0.70598,-1.47379 1.00685,-2.15422 0.30087,-0.68044 0.55684,-1.30235 0.73686,-1.80274 0.37149,-1.0326 0.70515,-2.06677 1.00115,-3.10272 0.296,-1.03595 0.5543,-2.07345 0.77476,-3.11211 0.22046,-1.03868 0.40314,-2.07874 0.54803,-3.1195 0.14489,-1.04076 0.25203,-2.08231 0.3213,-3.12452 0.0693,-1.04221 0.10064,-2.08486 0.0942,-3.12788 -0.006,-1.04301 -0.0507,-2.08635 -0.13281,-3.12955 -0.0821,-1.04319 -0.20204,-2.08648 -0.35988,-3.12922 -0.15784,-1.04274 -0.35332,-2.08489 -0.58694,-3.12654 -0.17986,-0.80191 -0.38261,-1.59702 -0.60773,-2.3843 -0.22513,-0.78729 -0.47284,-1.56674 -0.74189,-2.33769 -0.26905,-0.77096 -0.55972,-1.53345 -0.87135,-2.28638 -0.31164,-0.75293 -0.64425,-1.49649 -0.99712,-2.22969 -0.35288,-0.73321 -0.72578,-1.45621 -1.11854,-2.167992 -0.39276,-0.71177 -0.80529,-1.41225 -1.23659,-2.1009 -0.43131,-0.68865 -0.88145,-1.3653 -1.34996,-2.02913 -0.46851,-0.66382 -0.95527,-1.31502 -1.45964,-1.95232 -0.50436,-0.6373 -1.0264,-1.26075 -1.56528,-1.86982 -0.53887,-0.60907 -1.09452,-1.2038 -1.66656,-1.78295 -0.57204,-0.57914 -1.16064,-1.14286 -1.76451,-1.69038 -0.60386,-0.54752 -1.22307,-1.07859 -1.85741,-1.59278 -0.63433,-0.5142 -1.28348,-1.01132 -1.94695,-1.49049 -0.66347,-0.47917 -1.34123,-0.94037 -2.03248,-1.38282 -0.69125,-0.44245 -1.39629,-0.86611 -2.11399,-1.27014 -0.71769,-0.40402 -1.448,-0.78851 -2.19078,-1.15241 -1.08142,-0.5298 -2.16834,-1.0127 -3.26305,-1.44923 -1.0947,-0.43654 -2.1972,-0.82667 -3.31033,-1.17153 -1.11312,-0.34486 -2.2367,-0.64441 -3.37338,-0.89919005 -1.13668,-0.25478 -2.28649,-0.46492 -3.45187,-0.63121 -0.71579,-0.10213 -1.63786,-0.17884 -2.66235,-0.23008 -1.02449,-0.0512 -2.15141,-0.0767999993 -3.27712,-0.07709999932 z M 44.209179,10.75873 c 0.33679,0.0158 0.66385,0.0507 0.98103,0.10465 0.31717,0.0539 0.62421,0.12699 0.92065,0.21834 0.29645,0.0914 0.58234,0.20099 0.85693,0.32902 0.27459,0.12804 0.5379,0.27438 0.78952,0.43836 0.25161,0.16398 0.49156,0.34582 0.71908,0.54502 0.22751,0.19919 0.44267,0.41564 0.64496,0.64931 0.2023,0.23369 0.39186,0.48453 0.56782,0.75196 0.17596,0.26743 0.3385,0.55144 0.48699,0.8519 0.15614,0.31592 0.27422,0.55798 0.36357,0.77241 0.0894,0.21442 0.14989,0.40111 0.19084,0.60605 0.041,0.20494 0.0622,0.42825 0.0731,0.71573 0.0109,0.28748 0.0114,0.63938 0.0107,1.10143 -10e-4,0.84597 -0.0143,1.347 -0.0781,1.74606 -0.0319,0.19953 -0.0764,0.37353 -0.13851,0.55239 -0.0621,0.17887 -0.14186,0.36267 -0.24383,0.58158 -0.16915,0.36305 -0.36553,0.70667 -0.58628,1.02898 -0.22074,0.32231 -0.46596,0.62309 -0.73182,0.9012 -0.26586,0.27811 -0.55245,0.53324 -0.85693,0.763692 -0.30449,0.23045 -0.62663,0.43645 -0.96325,0.61579 -0.33662,0.17933 -0.68785,0.33204 -1.05011,0.4568 -0.36227,0.12475 -0.73578,0.22138 -1.1172,0.2881 -0.38142,0.0667 -0.77075,0.10377 -1.16482,0.10901 -0.39408,0.005 -0.79275,-0.0211 -1.19299,-0.0808 -0.26577,-0.0397 -0.53315,-0.10128 -0.79958,-0.18246 -0.26644,-0.0812 -0.53184,-0.18195 -0.79354,-0.30051 -0.26171,-0.11856 -0.51983,-0.2547 -0.77141,-0.4065 -0.25157,-0.1518 -0.49678,-0.31949 -0.73283,-0.5004 -0.23605,-0.18091 -0.46304,-0.375362 -0.67817,-0.581242 -0.21512,-0.20588 -0.41826,-0.42295 -0.60706,-0.64966 -0.18879,-0.22671 -0.36311,-0.46293 -0.52019,-0.70633 -0.15708,-0.24341 -0.29694,-0.49398 -0.4169,-0.74995 -0.10466,-0.22334 -0.18583,-0.40851 -0.24886,-0.58861 -0.063,-0.1801 -0.10782,-0.35522 -0.13952,-0.5581 -0.0634,-0.40574 -0.0745,-0.92318 -0.0745,-1.81615 0,-0.90101 0.0103,-1.41543 0.0738,-1.81313 0.0317,-0.19886 0.0767,-0.3685 0.14053,-0.54267 0.0638,-0.17417 0.14625,-0.35292 0.25289,-0.56983 0.16933,-0.34447 0.35602,-0.66872 0.55876,-0.97231 0.20274,-0.30359 0.42165,-0.58642 0.65569,-0.84787 0.23405,-0.26145 0.48334,-0.50169 0.74659,-0.71976 0.26324,-0.21806 0.54042,-0.41385 0.83077,-0.58727 0.29034,-0.17342 0.59391,-0.32426 0.90925,-0.45177 0.31534,-0.12752 0.64245,-0.2319 0.98069,-0.31225 0.33823,-0.0804 0.68741,-0.13677 1.04643,-0.16871 0.35902,-0.0319 0.72808,-0.0392 1.10579,-0.0215 z m -26.08017,12.846572 c 0.24958,-5.2e-4 3.94839,0.54171 8.21982,1.20507 2.76135,0.42884 4.86619,0.75415 6.56263,1.00048 1.69645,0.24633 2.98463,0.41389 4.11293,0.52791 1.1283,0.11402 2.09678,0.17435 3.1537,0.20626 1.05692,0.0319 2.20233,0.0352 3.68463,0.0352 1.59954,0 2.7518,0.006 3.87245,-0.0316 0.56033,-0.0186 1.11267,-0.0481 1.70916,-0.0942 0.59649,-0.0461 1.23689,-0.10895 1.97346,-0.19453 1.47313,-0.17116 3.33047,-0.43315 5.98744,-0.83479 2.65696,-0.40164 6.11376,-0.94289 10.78591,-1.6716 0.33878,-0.0528 0.73528,-0.0875 1.10109,-0.10096 0.36582,-0.0134 0.70106,-0.006 0.9173,0.0268 0.19606,0.0294 0.39016,0.0811 0.5799,0.15194 0.18973,0.0708 0.37485,0.16065 0.55306,0.26697 0.17821,0.10631 0.34931,0.22903 0.51081,0.3649 0.16149,0.13588 0.31352,0.28491 0.45311,0.4444 0.13958,0.1595 0.26685,0.32927 0.37933,0.50645 0.11248,0.17717 0.21027,0.36178 0.29045,0.55071 0.0802,0.18893 0.14278,0.38214 0.18547,0.57688 0.0427,0.19474 0.0654,0.39098 0.0654,0.58559 0,0.25052 -0.0467,0.52639 -0.12946,0.80763 -0.0828,0.28124 -0.20185,0.56782 -0.34646,0.84016 -0.1446,0.27234 -0.31505,0.53046 -0.50041,0.7543 -0.18535,0.22384 -0.38555,0.41366 -0.59062,0.54937 -0.1832,0.12124 -0.47063,0.25939 -0.78583,0.38436 -0.3152,0.12498 -0.65815,0.23649 -0.95318,0.30488 -2.12574,0.49274 -9.38797,2.1304 -12.83584,2.89444 -0.99563,0.22063 -1.76722,0.39386 -2.36989,0.53764 -0.60266,0.14377 -1.03632,0.25798 -1.35666,0.36021 -0.32034,0.10222 -0.5275,0.19244 -0.67616,0.28843 -0.14864,0.096 -0.23907,0.19793 -0.32666,0.32299 -0.0577,0.0824 -0.10533,0.24496 -0.14322,0.47626 -0.0379,0.23129 -0.0661,0.5314 -0.0848,0.88879 -0.0376,0.71477 -0.0375,1.65881 -0.003,2.74117 0.0345,1.08235 0.10382,2.30302 0.2046,3.57059 0.10077,1.26757 0.2332,2.58193 0.39442,3.85233 0.18176,1.43233 0.40465,2.85486 0.67783,4.30276 0.27317,1.44789 0.59647,2.92122 0.97867,4.45536 0.38221,1.53414 0.82336,3.1292 1.33218,4.82027 0.50883,1.69107 1.08528,3.47813 1.73835,5.39682 0.61867,1.8176 1.07991,3.17004 1.42005,4.19308 0.34014,1.02303 0.55937,1.71675 0.69426,2.21694 0.1349,0.5002 0.18555,0.80707 0.1885,1.05616 0.003,0.24909 -0.0419,0.44029 -0.0976,0.71003 -0.0672,0.32509 -0.17074,0.63027 -0.30555,0.91294 -0.1348,0.28265 -0.30081,0.54289 -0.49235,0.77811 -0.19154,0.23521 -0.40859,0.44544 -0.64597,0.62819 -0.23738,0.18275 -0.49507,0.33791 -0.76738,0.46318 -0.2723,0.12526 -0.55927,0.22065 -0.85559,0.28341 -0.29631,0.0628 -0.60217,0.093 -0.91159,0.0882 -0.30943,-0.005 -0.62245,-0.0445 -0.93407,-0.12176 -0.31163,-0.0773 -0.62177,-0.19227 -0.92468,-0.34713 -0.25403,-0.12986 -0.53701,-0.31527 -0.78818,-0.50979 -0.25116,-0.19453 -0.47028,-0.39818 -0.59733,-0.56346 -0.10005,-0.13016 -0.33812,-0.64742 -0.70902,-1.53946 -0.3709,-0.89204 -0.87463,-2.15869 -1.50692,-3.78827 -1.2646,-3.25914 -3.0427,-7.969 -5.2962,-14.03217 -0.53501,-1.4395 -1.01128,-2.61803 -1.0585,-2.61876 -0.0472,-6.4e-4 -1.90181,4.83238 -4.12131,10.73997 -1.43425,3.81751 -2.4797,6.5472 -3.21106,8.37711 -0.36568,0.91496 -0.65288,1.60496 -0.87101,2.09352 -0.21814,0.48858 -0.36709,0.77557 -0.45647,0.88477 -0.14289,0.17457 -0.30244,0.33417 -0.47559,0.47794 -0.17314,0.14376 -0.35987,0.27159 -0.55709,0.38335 -0.19722,0.11176 -0.40503,0.20754 -0.62014,0.28609 -0.21511,0.0786 -0.43759,0.13999 -0.66441,0.18413 -0.22682,0.0441 -0.4579,0.071 -0.69024,0.0795 -0.23234,0.009 -0.46595,-10e-4 -0.69762,-0.0295 -0.23167,-0.0283 -0.46139,-0.0752 -0.68622,-0.14153 -0.22481,-0.0663 -0.44458,-0.15205 -0.65636,-0.25758 -0.33422,-0.16655 -0.62536,-0.35518 -0.87504,-0.56883 -0.12484,-0.10682 -0.23938,-0.21972 -0.34378,-0.33942 -0.10439,-0.11969 -0.19865,-0.24604 -0.28307,-0.37933 -0.16884,-0.26658 -0.29804,-0.5611 -0.38973,-0.88644 -0.0917,-0.32534 -0.14578,-0.68166 -0.164,-1.07159 -0.0133,-0.28382 -0.0184,-0.51546 0.003,-0.76536 0.0218,-0.24989 0.07,-0.51786 0.16368,-0.8747 0.18732,-0.7137 0.5557,-1.78236 1.25269,-3.76915 0.60907,-1.73618 1.1403,-3.29801 1.61022,-4.74313 0.46994,-1.44513 0.87865,-2.77344 1.2423,-4.04217 0.36364,-1.26872 0.68242,-2.478 0.97264,-3.68496 0.29022,-1.20695 0.55194,-2.41171 0.80159,-3.67154 0.23509,-1.18633 0.44458,-2.39547 0.62685,-3.60884 0.18228,-1.21336 0.33735,-2.43098 0.46284,-3.63331 0.1255,-1.20233 0.22136,-2.38955 0.28609,-3.54276 0.0647,-1.1532 0.0983,-2.27217 0.0983,-3.33816 0,-1.03515 -0.006,-1.5927 -0.0583,-1.93757 -0.0261,-0.17244 -0.0639,-0.29182 -0.11807,-0.39107 -0.0542,-0.0992 -0.1247,-0.17836 -0.21699,-0.27067 -0.0604,-0.0604 -0.10293,-0.11078 -0.15999,-0.15897 -0.0571,-0.0482 -0.12878,-0.0943 -0.24786,-0.14657 -0.23814,-0.10448 -0.66567,-0.23317 -1.54381,-0.4511 -1.75627,-0.43588 -5.31487,-1.2283 -12.7664,-2.89612 -1.10089,-0.24641 -1.96645,-0.45208 -2.65732,-0.64899 -0.34544,-0.0985 -0.64728,-0.19478 -0.91295,-0.29279 -0.26565,-0.098 -0.49523,-0.19768 -0.69627,-0.3032 -0.20104,-0.10552 -0.37364,-0.21676 -0.52522,-0.33774 -0.15159,-0.12098 -0.28219,-0.2517 -0.39946,-0.3961 -0.11727,-0.1444 -0.22117,-0.3025 -0.31929,-0.47827 -0.0981,-0.17577 -0.1903,-0.36917 -0.28442,-0.58426 -0.11438,-0.26141 -0.18493,-0.53171 -0.21565,-0.80427 -0.0307,-0.27257 -0.0218,-0.54747 0.0221,-0.81869 0.0439,-0.27122 0.12314,-0.53886 0.23277,-0.79623 0.10962,-0.25737 0.24992,-0.50449 0.41622,-0.73551 0.1663,-0.23103 0.35854,-0.44575 0.57251,-0.63792 0.21398,-0.19218 0.44966,-0.36193 0.70232,-0.50276 0.25265,-0.14083 0.52227,-0.2527 0.8046,-0.32969 0.28234,-0.077 0.57739,-0.1191 0.88041,-0.11973 z"
     style="fill:#065ad8;fill-opacity:1;stroke-width:0.649025"
     id="path84" /></svg>
