<?xml version="1.0" encoding="UTF-8" standalone="no"?>
<svg
   viewBox="0 0 258.69355 258.69355"
   version="1.1"
   id="svg1"
   sodipodi:docname="ask_help.svg"
   xml:space="preserve"
   inkscape:version="1.3-beta (cedbd6c6ff, 2023-05-28)"
   width="258.69354"
   height="258.69354"
   xmlns:inkscape="http://www.inkscape.org/namespaces/inkscape"
   xmlns:sodipodi="http://sodipodi.sourceforge.net/DTD/sodipodi-0.dtd"
   xmlns="http://www.w3.org/2000/svg"
   xmlns:svg="http://www.w3.org/2000/svg"><defs
     id="defs1" /><sodipodi:namedview
     id="namedview1"
     pagecolor="#ffffff"
     bordercolor="#666666"
     borderopacity="1.0"
     inkscape:showpageshadow="2"
     inkscape:pageopacity="0.0"
     inkscape:pagecheckerboard="0"
     inkscape:deskcolor="#d1d1d1"
     inkscape:zoom="0.69564425"
     inkscape:cx="113.56379"
     inkscape:cy="55.34438"
     inkscape:window-width="1366"
     inkscape:window-height="705"
     inkscape:window-x="1432"
     inkscape:window-y="-8"
     inkscape:window-maximized="1"
     inkscape:current-layer="svg1" /><circle
     style="fill:#065ad8;fill-opacity:1;stroke-width:0.556728;stroke-linecap:round;stroke-linejoin:round"
     id="circle8"
     cx="129.34677"
     cy="129.34677"
     r="129.34677" /><g
     id="Solid"
     transform="matrix(4.2673809,0,0,3.8689119,26.662332,24.624034)"
     style="fill:#ffffff"><path
       d="m 46.79248,24.23 a 4.05389,4.05389 0 0 0 -5.689,-0.14 l -7.69872,6.84 a 5.25608,5.25608 0 0 1 0.58993,2.43 5.39055,5.39055 0 0 1 -3.4794,5.02 l -6.46895,2.43 a 1.00694,1.00694 0 0 1 -1.27975,-0.59 0.98322,0.98322 0 0 1 0.57986,-1.28 L 29.8154,36.51 A 3.38021,3.38021 0 0 0 31.995,33.36 3.45753,3.45753 0 0 0 28.63555,30 H 9.99866 A 1.99982,1.99982 0 0 0 7.999,28 H 3.99966 A 1.99982,1.99982 0 0 0 2,30 v 16 a 1.99986,1.99986 0 0 0 1.99966,2 H 7.999 A 1.99986,1.99986 0 0 0 9.99867,46 H 14.048 l 1.24979,0.51 A 19.61328,19.61328 0 0 0 37.924,40.87 L 47.03246,29.86 A 4.20182,4.20182 0 0 0 46.79248,24.23 Z M 12.99816,44 H 9.99866 V 32 h 2.9995 z M 30.41809,2 A 8.59142,8.59142 0 0 0 24.99615,3.9082 8.59147,8.59147 0 0 0 19.5742,2 8.68822,8.68822 0 0 0 10.90769,10.68945 c 0,9.14258 13.03,16.85059 13.58463,17.17481 a 1.00289,1.00289 0 0 0 1.00765,0 C 26.05456,27.54 39.08461,19.832 39.08461,10.68945 A 8.68822,8.68822 0 0 0 30.41809,2 Z m -1.772,18.6571 A 0.98319,0.98319 0 0 1 27.99587,20.88 0.99554,0.99554 0 0 1 27.3454,19.1377 c 3.70153,-3.1709 5.74025,-6.17188 5.74025,-8.44825 A 2.68158,2.68158 0 0 0 30.41809,8 a 1,1 0 0 1 0,-2 4.68337,4.68337 0 0 1 4.66719,4.68945 c 0,3.67865 -3.50128,7.45008 -6.43923,9.96765 z"
       id="path1"
       style="fill:#ffffff" /></g></svg>
