<?xml version="1.0" encoding="UTF-8" standalone="no"?>
<svg
   viewBox="0 0 258.69355 258.69355"
   version="1.1"
   id="svg1"
   sodipodi:docname="donner_help.svg"
   xml:space="preserve"
   inkscape:version="1.3-beta (cedbd6c6ff, 2023-05-28)"
   width="258.69354"
   height="258.69354"
   xmlns:inkscape="http://www.inkscape.org/namespaces/inkscape"
   xmlns:sodipodi="http://sodipodi.sourceforge.net/DTD/sodipodi-0.dtd"
   xmlns="http://www.w3.org/2000/svg"
   xmlns:svg="http://www.w3.org/2000/svg"><defs
     id="defs1" /><sodipodi:namedview
     id="namedview1"
     pagecolor="#ffffff"
     bordercolor="#666666"
     borderopacity="1.0"
     inkscape:showpageshadow="2"
     inkscape:pageopacity="0.0"
     inkscape:pagecheckerboard="0"
     inkscape:deskcolor="#d1d1d1"
     inkscape:zoom="0.8388337"
     inkscape:cx="380.28992"
     inkscape:cy="92.390184"
     inkscape:window-width="1366"
     inkscape:window-height="705"
     inkscape:window-x="-8"
     inkscape:window-y="-8"
     inkscape:window-maximized="1"
     inkscape:current-layer="svg1" /><g
     id="g10"
     transform="translate(584.44708,369.65674)"><circle
       style="fill:#065ad8;fill-opacity:1;stroke-width:0.556728;stroke-linecap:round;stroke-linejoin:round"
       id="circle335"
       cx="-455.10031"
       cy="-240.30997"
       r="129.34677" /><g
       id="g8"
       transform="matrix(1.8638329,0,0,1.8638329,-323.35692,-165.87913)"
       style="fill:#ffffff"><path
         style="fill:#ffffff"
         d="m -27.332828,-46.534711 c -0.32679,-0.18991 -1.07289,-1.395779 -1.658,-2.679709 -1.96867,-4.319973 -9.35347,-20.130732 -10.67667,-22.858612 -1.59608,-3.290443 -1.68171,-4.5095 -0.38177,-5.435137 0.51117,-0.363984 1.01071,-0.66179 1.11009,-0.66179 0.0994,0 2.78161,-1.224 5.96051,-2.72 3.17891,-1.496 6.18505,-2.72 6.68032,-2.72 0.49527,0 1.12152,0.252 1.39166,0.56 0.71692,0.817401 13.08284,27.585812 13.26919,28.723715 0.11097,0.677646 -0.0172,1.120945 -0.43168,1.493392 -0.72312,0.649751 -13.57676,6.666709 -14.21271,6.653161 -0.25123,-0.0054 -0.72415,-0.165111 -1.05094,-0.35502 z"
         id="path8" /><path
         style="fill:#ffffff"
         d="m -89.365428,-33.667874 c -2.332,-0.752408 -4.09988,-3.193873 -4.08621,-5.643118 0.0131,-2.341604 1.60467,-4.796433 3.59989,-5.552362 0.9434,-0.357423 6.61134,-1.760032 19.59308,-4.848573 4.4,-1.046823 8.288,-2.049119 8.64,-2.227325 0.57577,-0.291493 0.55972,-0.309696 -0.16,-0.181374 -0.44,0.07845 -3.90446,0.66352 -7.6988,1.300154 l -6.89881,1.157517 -1.90119,-1.144852 c -4.52585,-2.725354 -11.59383,-3.441742 -15.29316,-1.550065 l -1.00803,0.515467 0.64,-0.724737 c 1.18054,-1.336848 11.16103,-9.150431 14.88,-11.649336 5.30785,-3.566537 7.62915,-4.636307 11.23528,-5.177784 3.64095,-0.546705 10.57164,-0.584157 16.78745,-0.09072 l 4.59763,0.364981 2.44141,-0.86672 c 1.34278,-0.476696 2.49132,-0.816809 2.55233,-0.755806 0.15565,0.155651 2.70589,5.336892 2.70589,5.497472 0,0.131436 0.56063,1.348765 4.99832,10.853262 1.29893,2.781993 2.36168,5.165299 2.36168,5.296235 0,0.130936 -0.62881,0.543566 -1.39736,0.916956 -0.83742,0.406851 -2.14738,1.554397 -3.26908,2.863765 -6.80857,7.94772 -11.23571,10.462319 -18.37356,10.436109 -1.96464,-0.0072 -4.03939,-0.251714 -5.86526,-0.691198 -3.33884,-0.803652 -5.18037,-0.84428 -9.40192,-0.207427 -12.81783,1.933669 -18.37743,2.529608 -19.67958,2.109476 z"
         id="path7" /><path
         style="fill:#ffffff"
         d="m -70.678918,-26.359385 c 0.75761,-2.043643 1.26271,-3.965661 1.4632,-5.56774 l 0.23705,-1.894299 1.28,-0.271757 c 2.62259,-0.556801 10.72,0.619764 10.72,1.55763 0,0.79409 -1.96446,2.667786 -3.13623,2.991328 -1.37872,0.380683 -3.10729,0.0012 -4.31246,-0.946822 -1.06155,-0.835011 -1.19107,-0.808825 -1.1925,0.241085 -0.001,1.085935 -0.98617,2.753507 -2.02968,3.437239 -1.11488,0.730499 -3.25061,1.050103 -3.02938,0.453336 z"
         id="path6" /><path
         style="fill:#ffffff"
         d="m -110.76605,-6.0985896 c -12.81773,-12.8753234 -14.27511,-14.5847214 -16.83937,-19.7513704 -1.74085,-3.50756 -2.16956,-5.251491 -2.16331,-8.8 0.0133,-7.569586 4.38178,-13.648877 11.498,-16.000995 3.08471,-1.019588 7.52098,-1.018058 10.25207,0.0035 2.59644,0.971232 5.08104,2.931846 6.32824,4.993661 1.13304,1.873079 1.6606,2.12928 1.956552,0.950152 0.35544,-1.416189 3.30338,-4.261045 5.57353,-5.378639 2.07398,-1.021016 2.2344,-1.047716 6.29495,-1.047716 3.29899,0 4.49993,0.125386 5.76673,0.602078 1.68011,0.632227 2.30753,1.037054 2.03289,1.311689 -0.0904,0.09044 -2.45683,0.743137 -5.25866,1.450441 -6.3612,1.605845 -8.0675,2.605057 -9.0829,5.31896 -1.27803,3.415821 -0.43529,6.966943 2.13681,9.004083 2.54365,2.01461 3.80557,2.046385 15.77186,0.397136 2.552,-0.351728 4.83855,-0.640604 5.08122,-0.641947 0.97051,-0.0054 -0.13467,4.131906 -2.30732,8.63756 -1.37949,2.860784 -5.60153,8.165344 -10.34218,12.99391 -5.99929,6.1105484 -16.179622,15.8081024 -16.583912,15.7974604 -0.1803,-0.0047 -4.73214,-4.432746 -10.1152,-9.84 z"
         id="path5" /></g></g></svg>
