<?xml version="1.0" encoding="UTF-8" standalone="no"?>
<!-- Created with Inkscape (http://www.inkscape.org/) -->

<svg
   width="49.807091mm"
   height="50.746605mm"
   version="1.1"
   viewBox="0 0 49.807092 50.746605"
   xml:space="preserve"
   id="svg16"
   sodipodi:docname="supported.svg"
   inkscape:version="1.3-beta (cedbd6c6ff, 2023-05-28)"
   xmlns:inkscape="http://www.inkscape.org/namespaces/inkscape"
   xmlns:sodipodi="http://sodipodi.sourceforge.net/DTD/sodipodi-0.dtd"
   xmlns="http://www.w3.org/2000/svg"
   xmlns:svg="http://www.w3.org/2000/svg"><defs
     id="defs16" /><sodipodi:namedview
     id="namedview16"
     pagecolor="#ffffff"
     bordercolor="#666666"
     borderopacity="1.0"
     inkscape:showpageshadow="2"
     inkscape:pageopacity="0.0"
     inkscape:pagecheckerboard="0"
     inkscape:deskcolor="#d1d1d1"
     inkscape:document-units="mm"
     inkscape:zoom="1.8765417"
     inkscape:cx="36.236872"
     inkscape:cy="90.858628"
     inkscape:window-width="1366"
     inkscape:window-height="705"
     inkscape:window-x="1432"
     inkscape:window-y="-8"
     inkscape:window-maximized="1"
     inkscape:current-layer="svg16" /><g
     id="g48"
     style="fill:#065ad8;fill-opacity:1"
     transform="matrix(1.7251976,0,0,1.7251976,17.71602,-372.59738)"><path
       d="m 3.8535543,223.29287 c -0.068197,-0.006 -0.1245943,-0.004 -0.1725992,0.004 -0.048455,0.008 -0.096069,0.0204 -0.1431438,0.0377 -0.047075,0.0173 -0.093656,0.0392 -0.1390096,0.0656 -0.045354,0.0264 -0.089518,0.0574 -0.1328084,0.0925 -0.04329,0.0351 -0.085722,0.0744 -0.1266072,0.11782 -0.081771,0.0869 -0.1583078,0.19034 -0.2284099,0.30851 -0.070102,0.11817 -0.1334358,0.2514 -0.1891357,0.39791 -0.015525,0.0409 -0.024254,0.0753 -0.019637,0.11162 0.00462,0.0363 0.022468,0.0742 0.060461,0.12299 0.037993,0.0488 0.096264,0.10831 0.1808675,0.18655 0.084603,0.0782 0.1955835,0.17555 0.3400309,0.30024 0.1731098,0.14942 0.3374204,0.28512 0.4625041,0.38396 0.1250836,0.0988 0.2107013,0.1607 0.2273763,0.16123 0.0167,5e-4 0.1415948,-0.0897 0.3286621,-0.23565 0.1870673,-0.146 0.4366733,-0.34793 0.703833,-0.56999 0.2671547,-0.22205 0.5033325,-0.42996 0.6692098,-0.58601 0.082939,-0.078 0.1485994,-0.14329 0.1912028,-0.19069 0.042603,-0.0474 0.062519,-0.0769 0.054777,-0.0842 -0.0155,-0.0147 -0.1379874,-0.0622 -0.3224609,-0.12712 -0.1844736,-0.0649 -0.4311501,-0.14729 -0.6955648,-0.231 -0.3543547,-0.11218 -0.6116885,-0.18548 -0.8046021,-0.22686 -0.096457,-0.0207 -0.176749,-0.0332 -0.2449463,-0.0387 z"
       style="fill:#065ad8;fill-opacity:1;stroke-width:1.68653;stroke-linecap:round;stroke-linejoin:round"
       id="path38" /><path
       d="m -0.00409132,223.77811 c -0.06859744,0 -0.12539289,0.002 -0.17569987,0.009 -0.050307,0.007 -0.0939967,0.0179 -0.13539226,0.0357 -0.0413956,0.0178 -0.0806099,0.0422 -0.12247314,0.0749 -0.0418632,0.0327 -0.0862661,0.0739 -0.13797608,0.12557 -0.0502075,0.0502 -0.090536,0.0944 -0.1229899,0.13591 -0.0324539,0.0415 -0.0572795,0.0805 -0.0754476,0.12092 -0.0181681,0.0404 -0.0298569,0.0821 -0.037207,0.12919 -0.00735,0.0471 -0.0103353,0.0997 -0.0103353,0.16123 0,0.0828 0.008529,0.17298 0.0217041,0.25219 0.013175,0.0792 0.0311597,0.14712 0.0511597,0.18448 0.0185,0.0346 0.22141985,0.22248 0.51934814,0.48679 0.29792829,0.26432 0.69087699,0.60531 1.08985596,0.94671 0.39897897,0.34141 0.80386067,0.68292 1.12551267,0.94878 0.321652,0.26587 0.5598541,0.45583 0.6258016,0.49351 0.069197,0.0395 0.1455663,0.0661 0.2247925,0.0796 0.079226,0.0135 0.1612335,0.0141 0.243396,0.003 0.082162,-0.0115 0.1643563,-0.0352 0.2423624,-0.0708 0.078006,-0.0356 0.1518339,-0.083 0.2185913,-0.14159 0.0797,-0.07 0.1445386,-0.14467 0.1937867,-0.22273 0.024624,-0.039 0.04563,-0.0788 0.062528,-0.11937 0.016898,-0.0405 0.02966,-0.0818 0.038757,-0.12351 0.0091,-0.0417 0.014281,-0.0836 0.015503,-0.12609 0.00122,-0.0425 -0.00154,-0.0857 -0.00827,-0.12867 -0.00673,-0.043 -0.017283,-0.0861 -0.032039,-0.12919 -0.014756,-0.0431 -0.03347,-0.0858 -0.056327,-0.12868 -0.018675,-0.035 -0.071208,-0.0973 -0.1508952,-0.18086 -0.079687,-0.0835 -0.1868359,-0.18852 -0.3147095,-0.30851 -0.2557472,-0.23998 -0.5948096,-0.54058 -0.9663493,-0.85421 -0.5003345,-0.42236 -0.8724429,-0.73683 -1.1549682,-0.971 -0.28252534,-0.23417 -0.47530851,-0.38833 -0.61753337,-0.48938 -0.0711124,-0.0505 -0.12978056,-0.0877 -0.18035074,-0.11524 -0.0505702,-0.0276 -0.0930919,-0.0453 -0.13280844,-0.0568 -0.0397165,-0.0115 -0.076687,-0.0168 -0.11523844,-0.0191 -0.03855145,-0.002 -0.07901554,-0.002 -0.12609049,-0.002 z"
       style="fill:#065ad8;fill-opacity:1;stroke-width:1.68653;stroke-linecap:round;stroke-linejoin:round"
       id="path39" /><path
       d="m -1.4686014,226.05962 c -0.073248,0.009 -0.1489861,0.0276 -0.2227254,0.0548 -0.073739,0.0272 -0.1454707,0.0627 -0.2108399,0.1049 -0.065369,0.0422 -0.1244618,0.0912 -0.1725993,0.14521 -0.044422,0.0499 -0.081151,0.11666 -0.109554,0.19224 -0.028403,0.0756 -0.04844,0.15983 -0.058911,0.24546 -0.010471,0.0856 -0.011441,0.17265 -0.00207,0.2527 0.00937,0.08 0.029332,0.15355 0.060461,0.21239 0.021625,0.0409 0.190495,0.2048 0.4366659,0.4315 0.2461708,0.2267 0.5698629,0.51575 0.90123697,0.80615 0.33137404,0.2904 0.67051119,0.58243 0.94774576,0.81442 0.27723457,0.23199 0.49243981,0.40432 0.57619222,0.45579 0.025155,0.0155 0.0553621,0.0275 0.0894002,0.0367 0.0340382,0.009 0.0717695,0.0157 0.11213786,0.0191 0.0807368,0.007 0.17177639,0.002 0.26251629,-0.0119 0.09074,-0.0142 0.1811635,-0.0384 0.2614828,-0.0703 0.04016,-0.0159 0.077896,-0.0334 0.1116211,-0.0532 0.033725,-0.0198 0.063629,-0.0419 0.088367,-0.0651 0.0479,-0.045 0.1001931,-0.11298 0.1462443,-0.18655 0.046051,-0.0736 0.085492,-0.15246 0.1074869,-0.21911 0.01996,-0.0605 0.035942,-0.11591 0.044959,-0.16898 0.00902,-0.0531 0.011516,-0.10365 0.00517,-0.15503 -0.00635,-0.0514 -0.021924,-0.10375 -0.048059,-0.15916 -0.026135,-0.0554 -0.062829,-0.11415 -0.1131714,-0.17932 -0.050343,-0.0652 -0.1142982,-0.13638 -0.1932698,-0.21704 -0.078972,-0.0806 -0.1732321,-0.17047 -0.285254,-0.27233 -0.2240436,-0.20373 -0.51846486,-0.45586 -0.90123696,-0.77877 -0.45208455,-0.38137 -0.82294247,-0.68136 -1.09864095,-0.88987 -0.13784925,-0.10425 -0.25211481,-0.18586 -0.34054769,-0.24287 -0.088433,-0.057 -0.1510819,-0.0896 -0.1865519,-0.0966 -0.063895,-0.0128 -0.1350081,-0.014 -0.208256,-0.005 z"
       style="fill:#065ad8;fill-opacity:1;stroke-width:1.68653;stroke-linecap:round;stroke-linejoin:round"
       id="path40" /><path
       d="m -2.6132344,228.53182 c -0.078956,0.003 -0.1548939,0.0174 -0.2268595,0.0419 -0.071966,0.0245 -0.1395718,0.0588 -0.2015381,0.10129 -0.061966,0.0425 -0.1184739,0.0933 -0.1674317,0.15038 -0.048958,0.057 -0.090567,0.12055 -0.1235066,0.18861 -0.03294,0.0681 -0.056884,0.14095 -0.070797,0.21653 -0.013913,0.0756 -0.017943,0.15399 -0.00982,0.23358 0.00812,0.0796 0.028325,0.16021 0.061495,0.24029 0.013875,0.0335 0.054021,0.0873 0.1178223,0.15865 0.063801,0.0714 0.1512771,0.16015 0.2588989,0.26355 0.2152435,0.20679 0.5116856,0.47188 0.8655802,0.77153 0.2836648,0.24018 0.4979626,0.42109 0.6650757,0.55759 0.1671131,0.13649 0.2870051,0.22851 0.3824056,0.29042 0.0477,0.0309 0.0894614,0.0546 0.12764079,0.0723 0.0381794,0.0178 0.0732235,0.0295 0.10748698,0.0377 0.068527,0.0164 0.13468272,0.0176 0.22117513,0.0176 0.0730924,0 0.1338062,-0.002 0.18655192,-0.008 0.0527457,-0.006 0.0973423,-0.016 0.13849284,-0.0315 0.0411506,-0.0155 0.0789985,-0.0369 0.1173055,-0.0651 0.038307,-0.0282 0.07722466,-0.0633 0.12143962,-0.10749 0.07018493,-0.0702 0.12681905,-0.14316 0.1694987,-0.21808 0.0426796,-0.0749 0.0713009,-0.15174 0.0862996,-0.23047 0.0149987,-0.0787 0.0159584,-0.15919 0.003101,-0.24082 -0.0128578,-0.0816 -0.0392085,-0.16445 -0.0800985,-0.24804 -0.0199325,-0.0408 -0.06913776,-0.10412 -0.1405599,-0.18345 -0.07142214,-0.0793 -0.16550563,-0.1748 -0.27440186,-0.28061 -0.21779244,-0.21162 -0.49620201,-0.46409 -0.77979742,-0.709 -0.2835953,-0.24491 -0.5719792,-0.48216 -0.8092529,-0.66352 -0.1186368,-0.0907 -0.2245423,-0.16764 -0.3105754,-0.22428 -0.086033,-0.0566 -0.1523058,-0.0928 -0.1917195,-0.10335 -0.082936,-0.0221 -0.1649572,-0.0309 -0.2439128,-0.0279 z"
       style="fill:#065ad8;fill-opacity:1;stroke-width:1.68653;stroke-linecap:round;stroke-linejoin:round"
       id="path41" /><path
       d="m -3.1558369,231.35646 c -0.1125974,-0.008 -0.214899,-0.007 -0.3074748,0.005 -0.092576,0.0117 -0.175115,0.0333 -0.2485636,0.0651 -0.073449,0.0318 -0.1375373,0.0738 -0.1927531,0.12609 -0.055216,0.0523 -0.1016489,0.11485 -0.1395264,0.1881 -0.033905,0.0656 -0.059124,0.14315 -0.075448,0.22531 -0.016324,0.0822 -0.023821,0.16906 -0.022738,0.25425 0.00108,0.0852 0.010624,0.16824 0.028939,0.24288 0.018315,0.0746 0.045243,0.14068 0.080615,0.1912 0.036302,0.0518 0.1642218,0.17804 0.3384806,0.339 0.1742589,0.16096 0.3948231,0.35658 0.6170166,0.5488 0.2221936,0.19222 0.446212,0.38099 0.6263184,0.52658 0.1801064,0.1456 0.3163214,0.24814 0.3643189,0.26924 0.058082,0.0255 0.130159,0.0396 0.208256,0.0434 0.078097,0.004 0.1624325,-0.002 0.245463,-0.0176 0.083031,-0.0151 0.1648284,-0.039 0.2377116,-0.0703 0.072883,-0.0313 0.1368299,-0.07 0.1844849,-0.11473 0.066487,-0.0625 0.1221714,-0.13325 0.1658813,-0.20877 0.04371,-0.0755 0.0755547,-0.1561 0.0950847,-0.23874 0.01953,-0.0826 0.0267231,-0.16733 0.0206706,-0.25115 -0.006053,-0.0838 -0.0253569,-0.16639 -0.0583944,-0.24546 -0.016175,-0.0387 -0.0585893,-0.0969 -0.1204061,-0.16899 -0.061817,-0.0721 -0.1432779,-0.15808 -0.2382284,-0.25269 -0.1899009,-0.18923 -0.433192,-0.41302 -0.6805786,-0.62736 -0.2473866,-0.21433 -0.4985091,-0.4193 -0.7033162,-0.57205 -0.1024036,-0.0764 -0.1936539,-0.13977 -0.2666504,-0.18449 -0.072996,-0.0447 -0.1280822,-0.0706 -0.1591634,-0.0729 z"
       style="fill:#065ad8;fill-opacity:1;stroke-width:1.68653;stroke-linecap:round;stroke-linejoin:round"
       id="path42" /><path
       d="m -8.3942769,235.70451 c -0.027154,0 -0.075786,0.02 -0.1400431,0.0553 -0.064257,0.0352 -0.1440217,0.0859 -0.2340942,0.14727 -0.180145,0.12285 -0.4008144,0.2888 -0.6164999,0.46199 -0.2156854,0.17319 -0.4266322,0.35385 -0.587561,0.50488 -0.080465,0.0755 -0.1480759,0.14361 -0.1979209,0.19999 -0.04984,0.0564 -0.08198,0.10101 -0.08992,0.12919 -0.0084,0.0299 -0.01082,0.0604 -0.0067,0.0935 0.0041,0.0331 0.01476,0.0686 0.03307,0.10852 0.03662,0.0799 0.103708,0.17762 0.207223,0.30696 0.1531698,0.19135 1.6237789,1.99723 3.2680172,4.01319 0.6473044,0.79365 1.1591782,1.41964 1.5657959,1.91203 0.4066177,0.49239 0.7078816,0.85091 0.9332764,1.11053 0.2253948,0.25962 0.3748882,0.42038 0.4785237,0.51573 0.051818,0.0477 0.092013,0.0787 0.1245402,0.0982 0.032527,0.0195 0.057361,0.0271 0.078031,0.0269 0.03301,-2.5e-4 0.076619,-0.013 0.1322916,-0.0393 0.055673,-0.0262 0.1234858,-0.0662 0.2041219,-0.11989 0.1612724,-0.10738 0.3746431,-0.2709 0.6495728,-0.49713 0.2186598,-0.17992 0.4248657,-0.35898 0.5808431,-0.50281 0.1559773,-0.14382 0.2620863,-0.25264 0.2800862,-0.29094 0.012175,-0.0259 0.019475,-0.0515 0.021704,-0.078 0.00223,-0.0265 -7.936e-4,-0.0538 -0.0093,-0.0837 -0.017016,-0.0598 -0.056208,-0.12922 -0.1209229,-0.21911 -0.0956,-0.13285 -1.5709045,-1.95407 -3.2783528,-4.0473 -0.6281894,-0.77012 -1.1383092,-1.39274 -1.5523601,-1.89394 -0.4140508,-0.5012 -0.7319062,-0.88107 -0.975651,-1.16427 -0.2437448,-0.2832 -0.4134458,-0.46987 -0.530717,-0.58601 -0.058636,-0.0581 -0.1042906,-0.0987 -0.1395263,-0.12454 -0.035236,-0.0258 -0.0602,-0.0372 -0.077515,-0.0372 z"
       style="fill:#065ad8;fill-opacity:1;stroke-width:1.68653;stroke-linecap:round;stroke-linejoin:round"
       id="path43" /><path
       d="m 7.952529,223.78224 c -0.060411,3.2e-4 -0.1195842,0.007 -0.1767334,0.0196 -0.057149,0.013 -0.1118771,0.0326 -0.1627808,0.0594 -0.0434,0.0229 -0.2441513,0.17726 -0.5322673,0.40824 -0.2881159,0.23099 -0.6635852,0.5385 -1.0572998,0.8661 -0.5564344,0.46298 -0.9114343,0.76742 -1.1218953,0.96738 -0.1052305,0.1 -0.1742958,0.17383 -0.2144572,0.22841 -0.020081,0.0273 -0.033299,0.0497 -0.039791,0.0682 -0.00649,0.0185 -0.00635,0.0325 -0.00103,0.0439 0.01505,0.0322 0.031559,0.11737 0.046509,0.22789 0.01495,0.11052 0.028007,0.24639 0.035657,0.38189 0.00592,0.10475 0.00918,0.19184 0.00775,0.2682 -0.00143,0.0764 -0.00705,0.14205 -0.018603,0.20516 -0.011553,0.0631 -0.029302,0.12365 -0.053744,0.18862 -0.024442,0.065 -0.056021,0.13456 -0.096118,0.21652 -0.035382,0.0723 -0.076026,0.14196 -0.1214396,0.20826 -0.045414,0.0663 -0.09525,0.1292 -0.1493449,0.18861 -0.054095,0.0594 -0.1122064,0.11525 -0.1736328,0.16692 -0.061426,0.0517 -0.1263792,0.099 -0.1937866,0.14211 -0.067407,0.0431 -0.1372513,0.0817 -0.2092895,0.11524 -0.072038,0.0336 -0.146373,0.0625 -0.2216919,0.0858 -0.075319,0.0233 -0.1516771,0.0412 -0.2289266,0.0532 -0.07725,0.0121 -0.1552308,0.0181 -0.2330607,0.0181 -0.057745,0 -0.1016995,6.5e-4 -0.1353923,0.006 -0.033693,0.005 -0.057329,0.0147 -0.073381,0.0315 -0.016051,0.0168 -0.024635,0.0407 -0.029456,0.076 -0.00482,0.0353 -0.00568,0.0816 -0.00568,0.14211 0,0.0871 -0.010305,0.17431 -0.029456,0.26096 -0.019151,0.0867 -0.046913,0.17283 -0.083199,0.25683 -0.036286,0.084 -0.080887,0.16585 -0.1322917,0.24495 -0.051405,0.0791 -0.1096412,0.15542 -0.1741496,0.22738 -0.064508,0.072 -0.1352439,0.1395 -0.2108398,0.20205 -0.075596,0.0626 -0.1561445,0.12014 -0.2408122,0.17105 -0.084668,0.0509 -0.1733765,0.0953 -0.2651001,0.13229 -0.091724,0.037 -0.1864232,0.0665 -0.2831868,0.0873 -0.054437,0.0118 -0.096143,0.022 -0.1281576,0.0367 -0.032015,0.0147 -0.054617,0.0339 -0.071314,0.0646 -0.016697,0.0307 -0.027173,0.073 -0.035657,0.13281 -0.00848,0.0598 -0.014846,0.13732 -0.022221,0.23926 -0.00526,0.0728 -0.014383,0.14381 -0.027388,0.21291 -0.013006,0.0691 -0.030048,0.13641 -0.050643,0.20154 -0.020595,0.0651 -0.0448323,0.12771 -0.0728637,0.18862 -0.0280314,0.0609 -0.0597703,0.11977 -0.0950846,0.17621 -0.0353143,0.0564 -0.0743448,0.11053 -0.11678874,0.16227 -0.0424439,0.0517 -0.0880392,0.10101 -0.13745931,0.14779 -0.0494201,0.0468 -0.10240369,0.0912 -0.15864664,0.13281 -0.0562429,0.0416 -0.11588802,0.0807 -0.17880046,0.11679 -0.0939049,0.0539 -0.16427305,0.0946 -0.21652425,0.12971 -0.0522512,0.0351 -0.0866995,0.0643 -0.10748698,0.0961 -0.02078748,0.0318 -0.02839152,0.066 -0.02790527,0.11007 4.8625e-4,0.0441 0.0091006,0.0981 0.02067057,0.17002 0.02577747,0.16024 0.0371342,0.3153 0.03462321,0.46405 -0.002511,0.14876 -0.01860961,0.29099 -0.04754232,0.42582 -0.0289327,0.13483 -0.07053577,0.26239 -0.12402344,0.38085 -0.0267438,0.0592 -0.0563509,0.11585 -0.0888835,0.17054 -0.0325325,0.0547 -0.0683655,0.10726 -0.10645345,0.15709 -0.0380879,0.0498 -0.0785464,0.0969 -0.12195638,0.1416 -0.04341,0.0447 -0.0894774,0.0869 -0.13797607,0.12609 -0.0484987,0.0392 -0.0996082,0.0756 -0.15296224,0.10903 -0.053354,0.0334 -0.10893888,0.0641 -0.16691488,0.0915 -0.057976,0.0274 -0.11850295,0.0514 -0.18086755,0.0724 -0.062365,0.021 -0.1267499,0.0389 -0.1932699,0.0532 -0.06652,0.0143 -0.1347135,0.0247 -0.2051554,0.032 -0.070442,0.007 -0.1429105,0.0114 -0.217041,0.0114 -0.1496724,0 -0.2767224,-0.008 -0.3973918,-0.032 -0.060335,-0.012 -0.1189097,-0.0278 -0.1782837,-0.0491 -0.059374,-0.0213 -0.1192945,-0.0478 -0.181901,-0.0806 -0.062606,-0.0328 -0.1278884,-0.0719 -0.1979208,-0.11834 -0.070032,-0.0465 -0.1446912,-0.10041 -0.2263427,-0.16278 -0.1633031,-0.12475 -0.3541716,-0.28326 -0.5891114,-0.48473 -0.3975596,-0.34092 -0.7392568,-0.61994 -0.7591267,-0.6196 -0.02065,3.5e-4 -0.6415169,0.5084 -1.2634888,1.02578 -0.6219719,0.51737 -1.24479,1.04406 -1.26969,1.08159 -0.00484,0.007 0.05815,0.097 0.1725993,0.24856 0.1144494,0.15157 0.2803554,0.36521 0.4805908,0.6196 0.4004709,0.50878 0.9389539,1.18176 1.4815634,1.85312 0.5426094,0.67135 1.0891104,1.34096 1.5058512,1.84329 0.2083704,0.25117 0.384428,0.46046 0.5110799,0.6072 0.1266519,0.14674 0.2040582,0.23117 0.2154907,0.23203 0.0173,0.001 0.2884937,-0.20176 0.7115845,-0.5302 0.4230908,-0.32845 0.99799564,-0.78203 1.62264003,-1.28158 l 2.27117917,-1.81694 0.4847249,0.0398 c 0.2665997,0.0218 0.9021207,0.081 1.4118001,0.13178 0.2866948,0.0285 0.5479099,0.0445 0.7890992,0.0475 0.2411893,0.003 0.4622416,-0.007 0.6676595,-0.0305 0.1027089,-0.0118 0.2015482,-0.0273 0.2971395,-0.046 0.095591,-0.0187 0.1878121,-0.0409 0.2775024,-0.0667 0.08969,-0.0257 0.1769934,-0.055 0.2619995,-0.0879 0.085006,-0.0329 0.1680585,-0.0694 0.2495972,-0.10956 0.07051,-0.0347 0.2025372,-0.12368 0.3803385,-0.25321 0.1778014,-0.12954 0.4009879,-0.29962 0.6537069,-0.49713 0.505438,-0.39501 1.1285625,-0.89908 1.7394287,-1.40508 0.6108662,-0.50601 1.2097773,-1.01399 1.6670813,-1.41645 0.228652,-0.20124 0.421572,-0.37596 0.563273,-0.51108 0.141701,-0.13513 0.231872,-0.23066 0.254248,-0.27286 0.03475,-0.0655 0.06652,-0.14952 0.0894,-0.23202 0.02288,-0.0825 0.03725,-0.16361 0.03721,-0.22324 -4.2e-5,-0.0569 -0.0073,-0.11366 -0.02067,-0.1695 -0.01341,-0.0558 -0.03338,-0.11079 -0.05839,-0.16382 -0.02502,-0.053 -0.05504,-0.10395 -0.08992,-0.15244 -0.03488,-0.0485 -0.07432,-0.0942 -0.117306,-0.13643 -0.04299,-0.0422 -0.08966,-0.081 -0.139009,-0.11524 -0.04935,-0.0343 -0.101594,-0.0643 -0.155546,-0.0889 -0.05395,-0.0246 -0.109591,-0.0437 -0.166399,-0.0568 -0.05681,-0.0131 -0.114689,-0.0202 -0.172599,-0.0202 -0.06958,0 -0.132621,-0.008 -0.189136,-0.0222 -0.05651,-0.0145 -0.106614,-0.0359 -0.149345,-0.0625 -0.04273,-0.0266 -0.07823,-0.0588 -0.106453,-0.0951 -0.02823,-0.0363 -0.04901,-0.0768 -0.06201,-0.12041 -0.013,-0.0436 -0.01845,-0.09 -0.0155,-0.13849 0.0029,-0.0485 0.01398,-0.099 0.03359,-0.14986 0.01961,-0.0509 0.04775,-0.10256 0.08475,-0.15348 0.037,-0.0509 0.08287,-0.10081 0.137977,-0.14935 0.08267,-0.0728 0.152957,-0.14352 0.211873,-0.21394 0.05892,-0.0704 0.10644,-0.14091 0.14366,-0.2129 0.03722,-0.072 0.06459,-0.14569 0.08217,-0.22325 0.01758,-0.0776 0.02584,-0.15888 0.02584,-0.24598 0,-0.0615 -0.0044,-0.11876 -0.01344,-0.1726 -0.009,-0.0538 -0.02304,-0.10401 -0.04186,-0.15089 -0.01882,-0.0469 -0.04242,-0.0906 -0.07183,-0.13126 -0.02941,-0.0406 -0.06463,-0.0781 -0.10542,-0.11317 -0.04079,-0.035 -0.08708,-0.0676 -0.140043,-0.0977 -0.05296,-0.0301 -0.112368,-0.0579 -0.178284,-0.0837 -0.131831,-0.0517 -0.29066,-0.0955 -0.47904,-0.13436 -0.08878,-0.0183 -0.167738,-0.0401 -0.2377115,-0.0656 -0.069973,-0.0255 -0.1306906,-0.055 -0.181901,-0.0878 -0.05121,-0.0329 -0.093085,-0.0692 -0.1255738,-0.10956 -0.032489,-0.0404 -0.055438,-0.0848 -0.069246,-0.13281 -0.013808,-0.048 -0.018267,-0.0997 -0.013436,-0.15554 0.00483,-0.0558 0.018945,-0.11557 0.042375,-0.17932 0.023429,-0.0637 0.056199,-0.13126 0.098185,-0.20309 0.041987,-0.0718 0.092977,-0.14785 0.1534791,-0.22789 0.074201,-0.0982 0.1396562,-0.19037 0.1963702,-0.27699 0.05672,-0.0866 0.104805,-0.16758 0.144178,-0.24443 0.03937,-0.0768 0.06981,-0.14921 0.09198,-0.21807 0.02218,-0.0689 0.03621,-0.13423 0.04134,-0.19689 0.0051,-0.0627 0.0014,-0.12263 -0.01033,-0.18086 -0.01178,-0.0582 -0.03193,-0.11494 -0.06046,-0.17054 -0.02853,-0.0556 -0.06544,-0.11011 -0.110587,-0.16484 -0.04515,-0.0547 -0.09859,-0.10971 -0.160197,-0.16537 -0.084568,-0.0764 -0.1700823,-0.13623 -0.2568324,-0.17932 -0.043375,-0.0215 -0.087021,-0.039 -0.1307414,-0.0522 -0.043721,-0.0132 -0.087842,-0.022 -0.1317749,-0.0269 -0.043933,-0.005 -0.087763,-0.006 -0.1317749,-0.002 -0.044012,0.004 -0.088334,0.0113 -0.1322917,0.0233 -0.043958,0.0119 -0.087488,0.0282 -0.1312581,0.0486 -0.04377,0.0204 -0.08781,0.0451 -0.1312582,0.0739 -0.069097,0.0458 -0.1348886,0.0799 -0.1979207,0.10284 -0.063032,0.0229 -0.1232296,0.0341 -0.1803508,0.0341 -0.057121,0 -0.1114161,-0.0112 -0.1627807,-0.0341 -0.051365,-0.0229 -0.099448,-0.0571 -0.1452108,-0.10284 -0.05381,-0.0538 -0.092007,-0.10809 -0.1136881,-0.16485 -0.010841,-0.0284 -0.017517,-0.0572 -0.020154,-0.0873 -0.00264,-0.0301 -0.00103,-0.0616 0.00465,-0.094 0.011365,-0.065 0.039421,-0.13504 0.084749,-0.21343 0.045329,-0.0784 0.1078923,-0.16493 0.1881022,-0.262 0.08641,-0.10457 0.1593072,-0.20744 0.2191081,-0.30747 0.059801,-0.10003 0.1065508,-0.19705 0.1390096,-0.29042 0.032459,-0.0934 0.05091,-0.18307 0.055294,-0.26769 0.00219,-0.0423 8.305e-4,-0.0833 -0.00413,-0.12299 -0.00496,-0.0397 -0.013626,-0.0784 -0.025838,-0.11523 -0.017335,-0.0524 -0.042441,-0.10195 -0.074414,-0.14832 -0.031973,-0.0464 -0.070578,-0.0894 -0.114205,-0.12867 -0.043627,-0.0393 -0.092396,-0.0744 -0.144694,-0.10542 -0.052298,-0.031 -0.1084122,-0.0579 -0.1663981,-0.0796 -0.057986,-0.0217 -0.1181101,-0.0384 -0.1788004,-0.0496 -0.06069,-0.0113 -0.1220064,-0.0169 -0.1824178,-0.0165 z"
       style="fill:#065ad8;fill-opacity:1;stroke-width:1.68653;stroke-linecap:round;stroke-linejoin:round"
       id="path44" /><path
       d="m 16.728737,235.70451 c -0.01769,0 -0.04254,0.011 -0.07751,0.0362 -0.03497,0.0252 -0.07999,0.0649 -0.137976,0.12195 -0.115983,0.11412 -0.284058,0.29874 -0.526583,0.58033 -0.242525,0.28159 -0.559601,0.65979 -0.974618,1.1622 -0.415017,0.50241 -0.927685,1.12873 -1.561145,1.90531 -1.707448,2.09323 -3.182723,3.91445 -3.278353,4.0473 -0.06471,0.0899 -0.10442,0.15933 -0.121439,0.21911 -0.0085,0.0299 -0.01101,0.0572 -0.0088,0.0837 0.0022,0.0265 0.0095,0.0521 0.0217,0.078 0.018,0.0383 0.123592,0.14712 0.279569,0.29094 0.155978,0.14383 0.362184,0.32289 0.580844,0.50281 0.276109,0.2272 0.489537,0.39107 0.650606,0.49817 0.08053,0.0535 0.147965,0.0928 0.203605,0.11885 0.05564,0.0261 0.09949,0.0389 0.132808,0.0393 0.02083,2.5e-4 0.04557,-0.007 0.07803,-0.0264 0.03246,-0.0192 0.07294,-0.0503 0.12454,-0.0977 0.103205,-0.0947 0.252054,-0.25404 0.476974,-0.51314 0.224919,-0.25911 0.525432,-0.61769 0.932242,-1.11053 0.406811,-0.49284 0.920017,-1.12028 1.568897,-1.91616 1.643698,-2.01606 3.113814,-3.82194 3.266984,-4.0132 0.10328,-0.12895 0.169967,-0.22641 0.206706,-0.30644 0.01837,-0.04 0.02939,-0.0754 0.03359,-0.10852 0.0042,-0.0331 0.0016,-0.0637 -0.0067,-0.0935 -0.0079,-0.0284 -0.03967,-0.0732 -0.0894,-0.12971 -0.04973,-0.0565 -0.117633,-0.12494 -0.197921,-0.2005 -0.160574,-0.15112 -0.370691,-0.3313 -0.58601,-0.50437 -0.21532,-0.17307 -0.435899,-0.33929 -0.615983,-0.46198 -0.09004,-0.0613 -0.169732,-0.11157 -0.234095,-0.14676 -0.06436,-0.0352 -0.113125,-0.0553 -0.14056,-0.0553 z"
       style="fill:#065ad8;fill-opacity:1;stroke-width:1.68653;stroke-linecap:round;stroke-linejoin:round"
       id="path45" /><path
       d="m 12.114032,234.25861 -2.1667928,1.80867 c -0.4813845,0.40184 -0.905781,0.75174 -1.2743408,1.05058 -0.3685598,0.29884 -0.6815322,0.54661 -0.9394775,0.74414 -0.2579454,0.19754 -0.4612742,0.34495 -0.6108154,0.44287 -0.074771,0.049 -0.1358841,0.0857 -0.1839681,0.11007 -0.048084,0.0244 -0.082713,0.0367 -0.1043864,0.0367 -0.031,0 -0.1419967,0.0321 -0.2464966,0.0718 -0.022836,0.009 -0.041846,0.0175 -0.053743,0.0289 -0.011898,0.0115 -0.016574,0.0259 -0.011369,0.046 0.00521,0.0201 0.020103,0.046 0.048576,0.0806 0.028473,0.0346 0.070251,0.0778 0.1281576,0.13281 0.1158124,0.10996 0.2968743,0.26648 0.5674072,0.49299 0.2705329,0.22651 0.6307869,0.52324 1.1053589,0.91312 0.7487492,0.61513 1.24683,1.01529 1.5657959,1.25367 0.159482,0.11919 0.274372,0.19804 0.35295,0.24288 0.03929,0.0224 0.0696,0.0361 0.09198,0.0424 0.02238,0.006 0.03676,0.005 0.04444,-0.003 0.0446,-0.0472 1.029959,-1.25181 2.190047,-2.67684 0.580045,-0.71252 1.105282,-1.36683 1.483631,-1.84692 0.378348,-0.48009 0.610097,-0.7856 0.604097,-0.8015 -0.006,-0.0159 -0.155971,-0.14952 -0.392741,-0.3514 -0.236769,-0.20188 -0.560399,-0.47235 -0.913639,-0.76274 z"
       style="fill:#065ad8;fill-opacity:1;stroke-width:1.68653;stroke-linecap:round;stroke-linejoin:round"
       id="path46" /><path
       d="m 12.114032,234.25861 1.284676,1.05575 c 0.35324,0.29039 0.67687,0.56086 0.913639,0.76274 0.23677,0.20188 0.386741,0.3355 0.392741,0.3514 0.006,0.0159 -0.225749,0.32141 -0.604097,0.8015 -0.378349,0.48009 -0.903586,1.1344 -1.483631,1.84692 -1.160088,1.42503 -2.145447,2.62964 -2.190047,2.67684 -0.0077,0.008 -0.02206,0.009 -0.04444,0.003 -0.02238,-0.006 -0.05269,-0.02 -0.09198,-0.0424 -0.07858,-0.0448 -0.193468,-0.12369 -0.3529505,-0.24288 -0.3189659,-0.23838 -0.8170467,-0.63854 -1.5657959,-1.25367 -0.474572,-0.38988 -0.834826,-0.68661 -1.1053589,-0.91312 -0.2705329,-0.22651 -0.4515948,-0.38303 -0.5674072,-0.49299 -0.057906,-0.055 -0.099684,-0.0982 -0.1281576,-0.13281 -0.028473,-0.0346 -0.04337,-0.0605 -0.048576,-0.0806 -0.00521,-0.0201 -5.291e-4,-0.0345 0.011369,-0.046 0.011898,-0.0115 0.030907,-0.0203 0.053743,-0.0289 0.1044999,-0.0397 0.2154966,-0.0718 0.2464966,-0.0718 0.021674,0 0.056302,-0.0123 0.1043864,-0.0367 0.048084,-0.0244 0.1091974,-0.0611 0.1839681,-0.11007 0.1495412,-0.0979 0.35287,-0.24533 0.6108154,-0.44287 0.2579453,-0.19753 0.5709177,-0.4453 0.9394775,-0.74414 0.3685598,-0.29884 0.7929563,-0.64874 1.2743408,-1.05058 z"
       style="fill:#065ad8;fill-opacity:1;stroke-width:1.68653;stroke-linecap:round;stroke-linejoin:round"
       id="path47" /><path
       style="fill:#065ad8;fill-opacity:1;stroke:none;stroke-width:0.153458;stroke-dasharray:none"
       d="m -8.2126963,225.4334 c -1.22289,-0.70526 -1.34105,-0.8307 -1.11189,-1.18043 0.19753,-0.30148 0.36283,-0.2955 0.96485,0.0349 1.12249,0.61606 1.75459,1.01575 1.83041,1.15743 0.141,0.26345 -0.0887,0.64641 -0.38712,0.64538 -0.0866,-2.9e-4 -0.66992,-0.29607 -1.29625,-0.65729 z m 23.0892803,-0.52143 c -0.34423,-0.36642 -0.1841,-0.54867 1.1578,-1.31771 1.19741,-0.68624 1.34318,-0.71516 1.56982,-0.31137 0.0947,0.16877 0.0935,0.20915 -0.0114,0.36927 -0.13582,0.2073 -2.20043,1.42711 -2.41546,1.42711 -0.079,0 -0.21428,-0.0753 -0.30072,-0.1673 z m -17.6688703,-3.86248 c -0.24976,-0.2774 -1.28189,-2.1585 -1.28189,-2.33631 0,-0.37231 0.49672,-0.57448 0.74204,-0.30202 0.25643,0.28481 1.28189,2.15858 1.28189,2.34235 0,0.10741 -0.0511,0.24641 -0.11359,0.30889 -0.15124,0.15123 -0.48686,0.14434 -0.62845,-0.0129 z m 12.78233,-0.56536 c -0.21886,-0.21886 -0.12888,-0.50227 0.5076503,-1.59892 0.34167,-0.58866 0.65882,-1.09421 0.70476,-1.12345 0.28035,-0.1784 0.69793,0.0483 0.69793,0.37887 0,0.16108 -1.04746,2.0619 -1.28429,2.3306 -0.13861,0.15725 -0.47477,0.16418 -0.6260503,0.0129 z m -6.42861,-1.4096 -0.19045,-0.14981 v -1.31591 c 0,-1.07401 0.0207,-1.34544 0.11252,-1.47656 0.1432,-0.20444 0.48615,-0.21252 0.68259,-0.0161 0.13388,0.13389 0.14457,0.24094 0.14457,1.44895 0,1.28852 -0.002,1.30654 -0.17743,1.4818 -0.21646,0.21647 -0.32504,0.22171 -0.5718,0.0276 z"
       id="path48"
       sodipodi:nodetypes="ssssssssssssssssssssssscsssccssssccc" /></g></svg>
