<?xml version="1.0" encoding="UTF-8" standalone="no"?>
<!-- Created with Inkscape (http://www.inkscape.org/) -->

<svg
   width="51.501865mm"
   height="43.451248mm"
   version="1.1"
   viewBox="0 0 51.501866 43.451249"
   xml:space="preserve"
   id="svg16"
   sodipodi:docname="unsupport.svg"
   inkscape:version="1.3-beta (cedbd6c6ff, 2023-05-28)"
   xmlns:inkscape="http://www.inkscape.org/namespaces/inkscape"
   xmlns:sodipodi="http://sodipodi.sourceforge.net/DTD/sodipodi-0.dtd"
   xmlns="http://www.w3.org/2000/svg"
   xmlns:svg="http://www.w3.org/2000/svg"><defs
     id="defs16" /><sodipodi:namedview
     id="namedview16"
     pagecolor="#ffffff"
     bordercolor="#666666"
     borderopacity="1.0"
     inkscape:showpageshadow="2"
     inkscape:pageopacity="0.0"
     inkscape:pagecheckerboard="0"
     inkscape:deskcolor="#d1d1d1"
     inkscape:document-units="mm"
     inkscape:zoom="1.2488693"
     inkscape:cx="196.57782"
     inkscape:cy="58.052512"
     inkscape:window-width="1366"
     inkscape:window-height="705"
     inkscape:window-x="1432"
     inkscape:window-y="-8"
     inkscape:window-maximized="1"
     inkscape:current-layer="svg16" /><g
     id="g1"
     style="fill:#ffffff"
     transform="translate(0.84739171,-1.9075246)"><path
       d="m 24.364163,4.5763277 c -0.117654,-0.01035 -0.21495,-0.0069 -0.297768,0.0069 -0.08359,0.0138 -0.165738,0.03519 -0.246951,0.06504 -0.08121,0.02985 -0.161576,0.06763 -0.239819,0.113173 -0.07824,0.04555 -0.154437,0.09903 -0.229121,0.159581 -0.07468,0.06055 -0.147888,0.128355 -0.218423,0.203263 -0.141071,0.149919 -0.273112,0.328374 -0.394052,0.53224 -0.12094,0.203867 -0.230203,0.433715 -0.326296,0.686474 -0.02678,0.07056 -0.04184,0.129907 -0.03388,0.192566 0.008,0.06263 0.03876,0.12801 0.104307,0.212182 0.06555,0.08419 0.166075,0.186857 0.312032,0.321836 0.145957,0.13491 0.337421,0.302858 0.586621,0.517973 0.298648,0.257779 0.582117,0.491889 0.797911,0.662407 0.215794,0.17045 0.363501,0.277239 0.392269,0.278154 0.02881,8.62e-4 0.244279,-0.15475 0.567007,-0.406543 0.322728,-0.251879 0.753348,-0.600248 1.214251,-0.983345 0.460895,-0.383081 0.868348,-0.741766 1.154519,-1.010983 0.143086,-0.134566 0.256363,-0.247204 0.329863,-0.328978 0.0735,-0.08178 0.107857,-0.132668 0.0945,-0.145262 -0.02674,-0.02536 -0.238056,-0.107307 -0.556309,-0.219307 -0.318253,-0.111965 -0.743819,-0.254104 -1.199987,-0.398521 -0.611332,-0.193532 -1.055283,-0.319989 -1.388097,-0.391378 -0.166408,-0.03571 -0.304927,-0.05728 -0.422581,-0.06677 z"
       style="fill:#ffffff;fill-opacity:1;stroke-width:2.9096;stroke-linecap:round;stroke-linejoin:round"
       id="path38" /><path
       d="m 17.708962,5.4134627 c -0.118344,0 -0.216328,0.0035 -0.303117,0.01553 -0.08679,0.01208 -0.162163,0.03088 -0.233579,0.06159 -0.07142,0.03071 -0.139068,0.0728 -0.21129,0.129217 -0.07222,0.05641 -0.148826,0.127492 -0.238036,0.216633 -0.08662,0.0866 -0.156193,0.162859 -0.212182,0.234472 -0.05599,0.07159 -0.09882,0.138878 -0.130162,0.20861 -0.03134,0.0697 -0.05151,0.141639 -0.06419,0.222879 -0.01268,0.08126 -0.01783,0.172002 -0.01783,0.278153 0,0.142847 0.01471,0.298425 0.03744,0.435078 0.02273,0.136636 0.05376,0.253811 0.08826,0.318264 0.03192,0.05969 0.381993,0.383822 0.895978,0.839809 0.513985,0.456005 1.191899,1.04428 1.880217,1.6332623 0.688317,0.589 1.386818,1.178172 1.941731,1.636833 0.554914,0.458678 0.965859,0.786397 1.079632,0.851402 0.119378,0.06815 0.25113,0.114036 0.387811,0.137326 0.136681,0.02329 0.27816,0.02432 0.419906,0.0052 0.141746,-0.01984 0.283548,-0.06073 0.418124,-0.122144 0.134575,-0.06142 0.261943,-0.143192 0.377113,-0.244271 0.137498,-0.120764 0.249357,-0.249584 0.33432,-0.384253 0.04248,-0.06728 0.07872,-0.135946 0.107873,-0.205937 0.02915,-0.06987 0.05117,-0.141121 0.06686,-0.213079 0.0157,-0.07194 0.02464,-0.144227 0.02674,-0.21753 0.0021,-0.07332 -0.0027,-0.14785 -0.01427,-0.221982 -0.01161,-0.07418 -0.02982,-0.148539 -0.05527,-0.222878 -0.02546,-0.07436 -0.05774,-0.148022 -0.09718,-0.221998 -0.03222,-0.06038 -0.122848,-0.167862 -0.260324,-0.31202 -0.137476,-0.144054 -0.322329,-0.3252343 -0.542936,-0.5322403 -0.441214,-0.414013 -1.026164,-0.932608 -1.667143,-1.473681 -0.863176,-0.728655 -1.505137,-1.271178 -1.992549,-1.675167 -0.487412,-0.40399 -0.820001,-0.669946 -1.065367,-0.844277 -0.122683,-0.08712 -0.223897,-0.1513 -0.31114,-0.198812 -0.08724,-0.04762 -0.160602,-0.07815 -0.229121,-0.09799 -0.06852,-0.01984 -0.132301,-0.02898 -0.198809,-0.03295 -0.06651,-0.0035 -0.136318,-0.0035 -0.217531,-0.0035 z"
       style="fill:#ffffff;fill-opacity:1;stroke-width:2.9096;stroke-linecap:round;stroke-linejoin:round"
       id="path39" /><path
       d="m 15.182392,9.3495187 c -0.126367,0.01553 -0.25703,0.04762 -0.384245,0.09454 -0.127214,0.04692 -0.250966,0.10817 -0.36374,0.180973 -0.112775,0.0728 -0.214722,0.157338 -0.297768,0.250516 -0.07664,0.08609 -0.140002,0.2012613 -0.189003,0.3316523 -0.049,0.130425 -0.08357,0.275738 -0.101633,0.423467 -0.01806,0.147677 -0.01974,0.297855 -0.0036,0.435957 0.01616,0.138016 0.0506,0.264904 0.104307,0.366415 0.03731,0.07056 0.328642,0.35332 0.753335,0.744423 0.424694,0.391102 0.983126,0.88977 1.554812,1.390768 0.571686,0.500997 1.156764,1.004807 1.635049,1.405035 0.478284,0.400229 0.849556,0.697532 0.994045,0.786328 0.0434,0.02674 0.09551,0.04744 0.154233,0.06331 0.05872,0.01553 0.123817,0.02708 0.19346,0.03295 0.139287,0.01208 0.296348,0.0035 0.452893,-0.02053 0.156544,-0.0245 0.312543,-0.06625 0.451109,-0.121281 0.06928,-0.02743 0.134386,-0.05762 0.192569,-0.09178 0.05818,-0.03416 0.109772,-0.07228 0.15245,-0.11231 0.08264,-0.07763 0.172853,-0.194913 0.2523,-0.321836 0.07945,-0.126974 0.147491,-0.263023 0.185437,-0.378008 0.03443,-0.104374 0.06201,-0.199967 0.07756,-0.291524 0.01556,-0.09161 0.01987,-0.178816 0.0089,-0.267457 -0.01095,-0.08867 -0.03782,-0.178989 -0.08291,-0.274582 -0.04509,-0.09558 -0.108393,-0.196932 -0.195243,-0.309363 C 20.639859,13.554699 20.529522,13.4319 20.39328,13.292745 20.257038,13.153694 20.094421,12.998651 19.901161,12.822922 19.514641,12.471448 19.006706,12.036474 18.346349,11.47939 17.566414,10.821451 16.92661,10.303909 16.450976,9.9441877 16.213159,9.7643367 16.016028,9.6235427 15.863464,9.5251897 15.7109,9.4268497 15.602818,9.3706117 15.541625,9.3585357 c -0.110231,-0.02208 -0.232916,-0.02415 -0.359283,-0.0086 z"
       style="fill:#ffffff;fill-opacity:1;stroke-width:2.9096;stroke-linecap:round;stroke-linejoin:round"
       id="path40" /><path
       d="m 13.207674,13.614552 c -0.136214,0.0052 -0.267222,0.03002 -0.391377,0.07229 -0.124156,0.04227 -0.240789,0.101442 -0.347693,0.174745 -0.106904,0.07332 -0.204391,0.160961 -0.288853,0.259436 -0.08446,0.09834 -0.156246,0.207972 -0.213073,0.325389 -0.05683,0.117486 -0.09814,0.243167 -0.122139,0.373557 -0.024,0.130425 -0.03095,0.265663 -0.01694,0.402972 0.01401,0.137326 0.04887,0.276394 0.106091,0.414548 0.02394,0.05779 0.0932,0.150609 0.203267,0.273702 0.11007,0.123179 0.260983,0.276291 0.446652,0.454676 0.371338,0.356754 0.882759,0.814086 1.493297,1.331042 0.489378,0.414358 0.859084,0.726463 1.147387,0.961953 0.288303,0.235472 0.49514,0.394225 0.659725,0.501032 0.08229,0.05331 0.154339,0.09419 0.220206,0.124731 0.06587,0.03071 0.126325,0.05089 0.185436,0.06504 0.118223,0.02829 0.232354,0.03036 0.381571,0.03036 0.126099,0 0.230842,-0.0035 0.321839,-0.0138 0.091,-0.01035 0.167934,-0.0276 0.238927,-0.05434 0.07099,-0.02674 0.136288,-0.06366 0.202375,-0.11231 0.06609,-0.04865 0.133228,-0.109205 0.209508,-0.185441 0.121083,-0.121109 0.218788,-0.24698 0.292418,-0.376232 0.07363,-0.129217 0.123009,-0.261781 0.148884,-0.397606 0.02588,-0.135773 0.02753,-0.274634 0.0053,-0.415462 -0.02218,-0.140776 -0.06764,-0.283709 -0.138186,-0.427918 -0.03439,-0.07039 -0.119276,-0.179627 -0.242493,-0.316487 -0.123217,-0.136809 -0.28553,-0.301565 -0.473398,-0.484108 -0.375735,-0.365086 -0.856046,-0.800647 -1.345304,-1.223165 -0.489258,-0.422518 -0.986777,-0.831821 -1.396121,-1.144703 -0.204672,-0.156476 -0.38738,-0.289212 -0.535804,-0.386928 -0.148424,-0.09765 -0.262758,-0.160098 -0.330754,-0.178299 -0.143081,-0.03813 -0.284584,-0.05331 -0.420798,-0.04813 z"
       style="fill:#ffffff;fill-opacity:1;stroke-width:2.9096;stroke-linecap:round;stroke-linejoin:round"
       id="path41" /><path
       d="m 12.271578,18.487615 c -0.194253,-0.0138 -0.370743,-0.01208 -0.530455,0.0086 -0.159712,0.02018 -0.302108,0.05745 -0.428821,0.11231 -0.126714,0.05486 -0.237279,0.127319 -0.332538,0.21753 -0.09526,0.09023 -0.175364,0.198139 -0.24071,0.32451 -0.05849,0.113173 -0.102001,0.246962 -0.130163,0.388704 -0.02816,0.141811 -0.0411,0.291662 -0.03923,0.438631 0.0019,0.146987 0.01833,0.290248 0.04992,0.419016 0.0316,0.1287 0.07805,0.242701 0.139077,0.329858 0.06263,0.08936 0.283315,0.307154 0.583946,0.584842 0.300631,0.277688 0.681148,0.615171 1.064475,0.946789 0.383328,0.331617 0.769804,0.657283 1.080523,0.908454 0.310719,0.251189 0.545717,0.428091 0.628522,0.464492 0.100203,0.04399 0.22455,0.06832 0.359283,0.07487 0.134733,0.0069 0.280228,-0.0034 0.423472,-0.03036 0.143245,-0.02605 0.284362,-0.06728 0.4101,-0.121282 0.125737,-0.054 0.236058,-0.120764 0.318273,-0.197932 0.114703,-0.107825 0.21077,-0.229882 0.286178,-0.360169 0.07541,-0.130253 0.130347,-0.269304 0.16404,-0.411874 0.03369,-0.142501 0.0461,-0.288677 0.03566,-0.433283 -0.01044,-0.144572 -0.04375,-0.287056 -0.100742,-0.423467 -0.02791,-0.06677 -0.101078,-0.167172 -0.207725,-0.291541 -0.106646,-0.124387 -0.247182,-0.27272 -0.410991,-0.435941 -0.327616,-0.326459 -0.747341,-0.712541 -1.174132,-1.08232 -0.426791,-0.369761 -0.860027,-0.723375 -1.21336,-0.986899 -0.176666,-0.131805 -0.334091,-0.241131 -0.460024,-0.318282 -0.125933,-0.07712 -0.220967,-0.121799 -0.274589,-0.125767 z"
       style="fill:#ffffff;fill-opacity:1;stroke-width:2.9096;stroke-linecap:round;stroke-linejoin:round"
       id="path42" /><path
       d="m 3.2342336,25.98886 c -0.046846,0 -0.1307458,0.0345 -0.241602,0.0954 -0.110856,0.06073 -0.2484659,0.148195 -0.4038587,0.25407 -0.3107858,0.211941 -0.6914841,0.498237 -1.0635842,0.797024 -0.3720999,0.298787 -0.73602483,0.610461 -1.01365881,0.871018 -0.13881802,0.130252 -0.25546019,0.247756 -0.34145266,0.345022 -0.08598385,0.0973 -0.1414317,0.174263 -0.15512977,0.222879 -0.0144916583,0.05158 -0.01866664,0.104202 -0.01155882,0.161306 0.00707331,0.0571 0.02546391,0.118348 0.05705228,0.187218 0.06317674,0.137843 0.17891679,0.30643 0.35750062,0.529567 0.26424818,0.330116 2.80133946,3.445616 5.63797546,6.923545 1.116728,1.369203 1.9998114,2.44916 2.7013073,3.29863 0.7014959,0.84947 1.2212356,1.467988 1.6100867,1.915884 0.38885,0.447895 0.646756,0.725238 0.825547,0.889736 0.0894,0.08229 0.158741,0.135773 0.214857,0.169414 0.05612,0.03364 0.09896,0.04675 0.134619,0.04641 0.05695,-4.31e-4 0.132183,-0.02243 0.228229,-0.0678 0.09605,-0.0452 0.213037,-0.114208 0.352151,-0.206834 0.278226,-0.185252 0.646333,-0.467356 1.120641,-0.857648 0.377231,-0.310397 0.732977,-0.619311 1.002069,-0.867446 0.269092,-0.248118 0.452151,-0.435854 0.483204,-0.501929 0.021,-0.04468 0.0336,-0.08885 0.03744,-0.134566 0.0038,-0.04572 -0.0014,-0.09282 -0.01604,-0.144399 -0.02936,-0.103166 -0.09697,-0.22293 -0.208616,-0.378008 C 14.376483,39.308162 11.831291,36.166197 8.8856052,32.554962 7.8018544,31.226353 6.9217969,30.15221 6.2074773,29.287541 5.4931579,28.422872 4.9447945,27.767521 4.5242865,27.278945 4.1037786,26.79037 3.8110108,26.468327 3.6086949,26.267962 3.5075362,26.167728 3.428773,26.097685 3.3679844,26.053106 3.3071954,26.008596 3.2641275,25.988929 3.2342557,25.988929 Z"
       style="fill:#ffffff;fill-opacity:1;stroke-width:2.9096;stroke-linecap:round;stroke-linejoin:round"
       id="path43" /><path
       d="m 31.435704,5.4205877 c -0.104221,5.52e-4 -0.206306,0.01208 -0.3049,0.03381 -0.09859,0.02243 -0.19301,0.05624 -0.280829,0.102477 -0.07487,0.03951 -0.421209,0.305809 -0.918266,0.704295 -0.497057,0.398503 -1.144816,0.929019 -1.824051,1.494193 -0.95996,0.798732 -1.572405,1.323951 -1.935492,1.668922 -0.181543,0.17252 -0.300694,0.299891 -0.369981,0.394052 -0.03464,0.0471 -0.05745,0.08574 -0.06865,0.117659 -0.0112,0.03192 -0.01095,0.05607 -0.0018,0.07574 0.02596,0.05555 0.05445,0.202486 0.08024,0.393155 0.02579,0.190669 0.04832,0.425072 0.06152,0.658836 0.01021,0.180714 0.01584,0.330962 0.01337,0.462698 -0.0025,0.131805 -0.01216,0.245064 -0.03209,0.353942 -0.01993,0.108859 -0.05055,0.21332 -0.09272,0.325406 -0.04217,0.112138 -0.09665,0.232143 -0.165822,0.37354 -0.06104,0.124732 -0.13116,0.244909 -0.209508,0.35929 -0.07835,0.11438 -0.164325,0.222895 -0.257649,0.325389 -0.09333,0.102477 -0.193578,0.198829 -0.299551,0.28797 -0.105972,0.08919 -0.218029,0.170795 -0.33432,0.245168 -0.116291,0.07436 -0.236786,0.140949 -0.361066,0.198812 -0.12428,0.05797 -0.252522,0.107825 -0.382462,0.148022 -0.129941,0.0402 -0.261673,0.07108 -0.394944,0.09178 -0.133271,0.02088 -0.267804,0.03123 -0.402076,0.03123 -0.09962,0 -0.175451,0.0011 -0.233578,0.01035 -0.05813,0.0086 -0.0989,0.02536 -0.126597,0.05434 -0.02769,0.02898 -0.0425,0.07022 -0.05082,0.131115 -0.0083,0.0609 -0.0098,0.140776 -0.0098,0.245168 0,0.150265 -0.01778,0.300719 -0.05082,0.450208 -0.03304,0.149574 -0.08093,0.298166 -0.143535,0.443082 -0.0626,0.144917 -0.139546,0.286124 -0.228229,0.422587 -0.08868,0.136463 -0.189153,0.268131 -0.300442,0.392276 -0.111289,0.124214 -0.233323,0.240665 -0.363741,0.348576 -0.130418,0.107997 -0.26938,0.207265 -0.415448,0.295095 -0.146069,0.08781 -0.299109,0.164411 -0.45735,0.228226 -0.158242,0.06383 -0.321617,0.114726 -0.488554,0.15061 -0.09391,0.02036 -0.165865,0.03795 -0.221097,0.06331 -0.05523,0.02536 -0.09423,0.05848 -0.123031,0.111448 -0.02881,0.05296 -0.04688,0.125939 -0.06151,0.229123 -0.01463,0.103167 -0.02561,0.236904 -0.03834,0.412771 -0.0091,0.125594 -0.02481,0.248101 -0.04725,0.367312 -0.02244,0.119211 -0.05184,0.235334 -0.08737,0.347696 -0.03553,0.11231 -0.07735,0.220325 -0.125705,0.325407 -0.04836,0.105064 -0.103115,0.206627 -0.164039,0.303997 -0.06093,0.0973 -0.12826,0.190686 -0.201484,0.279948 -0.07322,0.08919 -0.151885,0.174262 -0.237145,0.254967 -0.08526,0.08074 -0.176666,0.157338 -0.273696,0.229123 -0.09703,0.07177 -0.19993,0.139224 -0.308466,0.201486 -0.162005,0.09299 -0.283404,0.163204 -0.373548,0.223775 -0.09014,0.06056 -0.149573,0.110931 -0.185436,0.165792 -0.03586,0.05486 -0.04898,0.113863 -0.04814,0.189892 8.39e-4,0.07608 0.0157,0.169242 0.03566,0.293318 0.04447,0.276446 0.06406,0.543955 0.05973,0.800578 -0.0043,0.256641 -0.03211,0.502016 -0.08202,0.734624 -0.04991,0.232608 -0.121688,0.452675 -0.213965,0.657042 -0.04614,0.102131 -0.09722,0.199864 -0.153342,0.294215 -0.05612,0.09437 -0.117944,0.185044 -0.183653,0.271011 -0.06571,0.08591 -0.135508,0.167172 -0.210399,0.244288 -0.07489,0.07712 -0.154366,0.14992 -0.238036,0.21753 -0.08367,0.06763 -0.171844,0.130425 -0.26389,0.188098 -0.09205,0.05762 -0.187941,0.110586 -0.287961,0.157856 -0.10002,0.04727 -0.204441,0.08868 -0.312032,0.124904 -0.107592,0.03623 -0.218669,0.06711 -0.333429,0.09178 -0.11476,0.02467 -0.232407,0.04261 -0.353934,0.05521 -0.121526,0.01208 -0.246549,0.01967 -0.374438,0.01967 -0.258215,0 -0.477401,-0.0138 -0.68558,-0.05521 -0.104089,-0.0207 -0.205142,-0.04796 -0.307574,-0.08471 -0.102432,-0.03675 -0.205807,-0.08246 -0.313815,-0.139051 -0.108008,-0.05659 -0.220633,-0.124042 -0.341453,-0.20416 -0.120819,-0.08022 -0.249621,-0.173227 -0.390486,-0.280828 -0.28173,-0.215218 -0.611016,-0.488679 -1.016333,-0.836255 -0.685869,-0.588154 -1.275364,-1.069519 -1.309644,-1.068932 -0.03562,6.04e-4 -1.1067434,0.87709 -2.1797678,1.769673 -1.0730244,0.892566 -2.1475087,1.80121 -2.1904661,1.865957 -0.00835,0.01208 0.1003202,0.167344 0.2977679,0.428815 0.1974478,0.261488 0.4836684,0.630059 0.8291141,1.068932 0.6908914,0.877746 1.619881,2.03877 2.5559896,3.196998 0.9361083,1.158212 1.8789303,2.313421 2.5978913,3.18004 0.35948,0.433318 0.663214,0.794384 0.881713,1.04754 0.2185,0.253155 0.352041,0.398814 0.371764,0.400297 0.02985,0.0017 0.497709,-0.348075 1.227624,-0.914699 0.729916,-0.566641 1.72174,-1.349157 2.799375,-2.210979 l 3.918233,-3.134581 0.836246,0.06866 c 0.459937,0.03761 1.556337,0.139741 2.435634,0.227347 0.494605,0.04917 0.945253,0.07677 1.361352,0.08195 0.416099,0.0052 0.797458,-0.01208 1.151845,-0.05262 0.177193,-0.02036 0.34771,-0.0471 0.512624,-0.07936 0.164914,-0.03226 0.324013,-0.07056 0.478747,-0.115071 0.154733,-0.04434 0.305348,-0.09489 0.452001,-0.151644 0.146652,-0.05676 0.289934,-0.119729 0.430604,-0.189013 0.121644,-0.05986 0.349417,-0.213373 0.656159,-0.436837 0.306743,-0.223482 0.691783,-0.516904 1.127774,-0.857648 0.87198,-0.68147 1.946993,-1.551091 3.000858,-2.424041 1.053865,-0.872967 2.087105,-1.749333 2.876045,-2.443656 0.394469,-0.347178 0.727295,-0.648605 0.971757,-0.881714 0.244462,-0.233126 0.400025,-0.397934 0.438628,-0.470737 0.05995,-0.113001 0.11476,-0.257952 0.154233,-0.40028 0.03947,-0.142329 0.06426,-0.28226 0.06419,-0.385134 -7.2e-5,-0.09816 -0.01259,-0.196085 -0.03566,-0.292421 -0.02313,-0.09627 -0.05759,-0.191134 -0.100734,-0.282621 -0.04316,-0.09144 -0.09496,-0.179335 -0.15513,-0.26299 -0.06018,-0.08367 -0.128216,-0.162513 -0.202376,-0.235368 -0.07417,-0.0728 -0.154681,-0.139741 -0.239818,-0.198812 -0.08514,-0.05917 -0.17527,-0.11093 -0.268347,-0.15337 -0.09307,-0.04244 -0.189067,-0.07539 -0.287072,-0.09799 -0.09801,-0.0226 -0.197861,-0.03485 -0.297767,-0.03485 -0.120039,0 -0.228797,-0.0138 -0.326297,-0.0383 -0.09749,-0.02501 -0.18393,-0.06193 -0.25765,-0.107825 -0.07372,-0.04589 -0.134962,-0.101441 -0.183652,-0.164066 -0.0487,-0.06262 -0.08455,-0.132495 -0.10698,-0.207731 -0.02243,-0.07522 -0.03183,-0.155268 -0.02674,-0.238922 0.005,-0.08367 0.02412,-0.170795 0.05795,-0.258539 0.03383,-0.08781 0.08238,-0.176936 0.146211,-0.264783 0.06383,-0.08781 0.142967,-0.173917 0.238037,-0.257658 0.142622,-0.125595 0.263881,-0.247601 0.365523,-0.369089 0.101649,-0.121454 0.18363,-0.243098 0.247842,-0.367295 0.06421,-0.124214 0.111431,-0.251344 0.14176,-0.38515 0.03033,-0.133875 0.04458,-0.274099 0.04458,-0.424364 0,-0.1061 -0.0076,-0.204884 -0.02319,-0.297769 -0.01553,-0.09282 -0.03975,-0.179438 -0.07222,-0.260315 -0.03247,-0.08091 -0.07318,-0.156303 -0.123921,-0.22645 -0.05074,-0.07004 -0.111499,-0.134738 -0.18187,-0.19524 -0.07037,-0.06038 -0.15023,-0.116624 -0.241602,-0.168552 -0.09137,-0.05193 -0.193857,-0.09989 -0.307575,-0.144399 -0.227435,-0.08919 -0.501446,-0.164756 -0.826439,-0.231798 -0.153163,-0.03157 -0.289381,-0.06918 -0.410099,-0.113173 -0.120717,-0.04399 -0.225467,-0.09488 -0.313815,-0.151472 -0.08835,-0.05676 -0.16059,-0.119384 -0.21664,-0.189013 -0.05605,-0.0697 -0.09564,-0.146296 -0.119463,-0.229123 -0.02382,-0.08281 -0.03151,-0.172002 -0.02318,-0.268337 0.0083,-0.09627 0.03268,-0.199381 0.07311,-0.309363 0.04042,-0.109895 0.09695,-0.226449 0.169388,-0.35037 0.07244,-0.123869 0.160404,-0.255071 0.264782,-0.393155 0.128011,-0.169415 0.240935,-0.328426 0.338777,-0.477863 0.09785,-0.149402 0.18081,-0.289108 0.248736,-0.42169 0.06792,-0.132495 0.120436,-0.257417 0.158684,-0.376214 0.03827,-0.118866 0.06247,-0.231573 0.07132,-0.339674 0.0088,-0.10817 0.0024,-0.211561 -0.01782,-0.312019 -0.02032,-0.100407 -0.05509,-0.198294 -0.104305,-0.294215 -0.04922,-0.09592 -0.112897,-0.189962 -0.190785,-0.284382 -0.07789,-0.09437 -0.170087,-0.1892737 -0.276371,-0.2852987 -0.145897,-0.131805 -0.293426,-0.235024 -0.443087,-0.309362 -0.07483,-0.03709 -0.150128,-0.06728 -0.225555,-0.09006 -0.07543,-0.02277 -0.151545,-0.03795 -0.227337,-0.04641 -0.07579,-0.0086 -0.151409,-0.01035 -0.227338,-0.0035 -0.07593,0.0069 -0.152394,0.01949 -0.22823,0.0402 -0.07584,0.02053 -0.150934,0.04865 -0.226446,0.08385 -0.07551,0.03519 -0.151489,0.07781 -0.226446,0.127492 -0.119206,0.07901 -0.23271,0.137843 -0.341452,0.177419 -0.108743,0.03951 -0.212596,0.05883 -0.311141,0.05883 -0.09855,0 -0.192215,-0.01932 -0.280829,-0.05883 -0.08862,-0.03951 -0.171567,-0.09851 -0.250517,-0.177419 -0.09283,-0.09282 -0.158731,-0.186477 -0.196135,-0.284399 -0.0187,-0.04899 -0.03022,-0.09868 -0.03477,-0.15061 -0.0046,-0.05193 -0.0018,-0.106272 0.008,-0.162168 0.01961,-0.112138 0.06801,-0.232971 0.146209,-0.368209 0.0782,-0.135256 0.186135,-0.284537 0.324513,-0.452002 0.149074,-0.180404 0.274836,-0.357875 0.378005,-0.530446 0.103168,-0.172572 0.183821,-0.339951 0.239819,-0.501032 0.056,-0.161134 0.08783,-0.315832 0.09539,-0.461818 0.0038,-0.07298 0.0014,-0.143709 -0.0071,-0.212182 -0.0086,-0.06849 -0.02351,-0.135256 -0.04458,-0.198795 -0.02991,-0.0904 -0.07322,-0.175884 -0.128379,-0.255881 -0.05516,-0.08005 -0.121761,-0.154233 -0.197026,-0.221981 -0.07527,-0.0678 -0.159401,-0.128355 -0.249626,-0.181871 -0.09022,-0.05348 -0.187032,-0.09989 -0.287069,-0.137325 -0.100038,-0.03744 -0.203763,-0.06625 -0.308466,-0.08557 -0.104702,-0.01949 -0.210485,-0.02916 -0.314707,-0.02847 z"
       style="fill:#ffffff;fill-opacity:1;stroke-width:2.9096;stroke-linecap:round;stroke-linejoin:round"
       id="path44" /><path
       d="m 46.576397,25.98886 c -0.03052,0 -0.07339,0.01898 -0.13372,0.06245 -0.06033,0.04347 -0.137999,0.111965 -0.238036,0.210388 -0.200094,0.19688 -0.490056,0.515385 -0.90846,1.001184 -0.418403,0.485798 -0.965422,1.138268 -1.681408,2.005025 -0.715987,0.866756 -1.60044,1.947282 -2.693284,3.287036 -2.945685,3.611235 -5.490826,6.7532 -5.655807,6.982392 -0.111637,0.155095 -0.180145,0.274876 -0.209506,0.378008 -0.01466,0.05158 -0.01899,0.09868 -0.01518,0.144399 0.0038,0.04572 0.01639,0.08988 0.03744,0.134566 0.03105,0.06607 0.213221,0.253811 0.482312,0.501929 0.269093,0.248135 0.624839,0.557049 1.002071,0.867446 0.476342,0.391965 0.844548,0.674673 1.122423,0.859442 0.138931,0.0923 0.255269,0.160098 0.351259,0.20504 0.09599,0.04503 0.17164,0.06711 0.22912,0.0678 0.03594,4.31e-4 0.07862,-0.01208 0.134617,-0.04554 0.056,-0.03312 0.125836,-0.08678 0.214857,-0.168552 0.178049,-0.163376 0.434843,-0.438269 0.822874,-0.885268 0.38803,-0.447016 0.906474,-1.065637 1.608302,-1.915884 0.701829,-0.850246 1.587211,-1.932704 2.706657,-3.305754 2.835704,-3.478102 5.371944,-6.593602 5.636193,-6.923563 0.178178,-0.222465 0.293227,-0.390602 0.356609,-0.52867 0.03169,-0.06901 0.0507,-0.13008 0.05795,-0.187218 0.0072,-0.0571 0.0028,-0.109896 -0.01156,-0.161306 -0.01363,-0.049 -0.06844,-0.126285 -0.154232,-0.223776 -0.0858,-0.09747 -0.202941,-0.215546 -0.341453,-0.345902 -0.277022,-0.260712 -0.639516,-0.571558 -1.010983,-0.870138 -0.37147,-0.29858 -0.752012,-0.585342 -1.062693,-0.797007 -0.155337,-0.105754 -0.292821,-0.19248 -0.40386,-0.25319 -0.111034,-0.06073 -0.195163,-0.0954 -0.242494,-0.0954 z"
       style="fill:#ffffff;fill-opacity:1;stroke-width:2.9096;stroke-linecap:round;stroke-linejoin:round"
       id="path45" /><path
       d="m 38.615119,23.494397 -3.738146,3.120313 c -0.830483,0.693253 -1.562651,1.2969 -2.198489,1.812458 -0.635839,0.515558 -1.175778,0.94301 -1.620785,1.283789 -0.445007,0.340795 -0.795789,0.595106 -1.053777,0.764038 -0.128995,0.08453 -0.234427,0.147849 -0.317381,0.189892 -0.08295,0.04209 -0.142697,0.06331 -0.180088,0.06331 -0.05348,0 -0.244972,0.05538 -0.425255,0.123869 -0.0394,0.01553 -0.07219,0.03019 -0.09272,0.04986 -0.02053,0.01984 -0.02859,0.04468 -0.01961,0.07936 0.009,0.03468 0.03468,0.07936 0.0838,0.13905 0.04912,0.05969 0.121197,0.134221 0.221097,0.229124 0.1998,0.189703 0.512167,0.459731 0.97889,0.850505 0.466723,0.390775 1.088232,0.902693 1.906962,1.575313 1.291741,1.06122 2.151029,1.751575 2.701308,2.162828 0.275138,0.205626 0.473346,0.341658 0.608908,0.419016 0.06778,0.03864 0.120074,0.06228 0.158684,0.07315 0.03861,0.01035 0.06342,0.0086 0.07667,-0.0052 0.07694,-0.08143 1.776883,-2.15962 3.778264,-4.618078 1.000692,-1.229238 1.906829,-2.358052 2.559556,-3.186302 0.652725,-0.82825 1.052538,-1.355315 1.042187,-1.382746 -0.01035,-0.02743 -0.269081,-0.257952 -0.677556,-0.606234 -0.408473,-0.348283 -0.966799,-0.814897 -1.576208,-1.315878 z"
       style="fill:#ffffff;fill-opacity:1;stroke-width:2.9096;stroke-linecap:round;stroke-linejoin:round"
       id="path46" /><path
       d="m 38.615119,23.494397 2.21632,1.821377 c 0.609409,0.50098 1.167734,0.967594 1.576208,1.315877 0.408475,0.348283 0.667204,0.578804 0.677556,0.606235 0.01035,0.02743 -0.389462,0.554496 -1.042187,1.382746 -0.652727,0.82825 -1.558865,1.957064 -2.559557,3.186302 -2.001381,2.458458 -3.70132,4.536648 -3.778264,4.618078 -0.01328,0.0138 -0.03806,0.01553 -0.07667,0.0052 -0.03861,-0.01035 -0.0909,-0.0345 -0.158684,-0.07315 -0.135566,-0.07729 -0.333771,-0.21339 -0.608909,-0.419016 -0.55028,-0.411253 -1.409567,-1.101608 -2.701308,-2.162829 -0.81873,-0.67262 -1.44024,-1.184538 -1.906962,-1.575312 -0.466723,-0.390775 -0.779091,-0.660803 -0.97889,-0.850505 -0.0999,-0.09489 -0.171974,-0.169415 -0.221097,-0.229124 -0.04912,-0.05969 -0.07482,-0.104374 -0.0838,-0.139051 -0.009,-0.03468 -9.13e-4,-0.05952 0.01961,-0.07936 0.02053,-0.01984 0.05332,-0.03502 0.09272,-0.04986 0.180283,-0.06849 0.371774,-0.123869 0.425255,-0.123869 0.03739,0 0.09713,-0.02122 0.180087,-0.06332 0.08296,-0.04209 0.188387,-0.10541 0.317382,-0.189892 0.257988,-0.168897 0.60877,-0.423243 1.053777,-0.764039 0.445007,-0.340778 0.984946,-0.76823 1.620784,-1.283788 0.635839,-0.515558 1.368007,-1.119205 2.19849,-1.812458 z"
       style="fill:#ffffff;fill-opacity:1;stroke-width:2.9096;stroke-linecap:round;stroke-linejoin:round"
       id="path47" /></g></svg>
